<svg xmlns="http://www.w3.org/2000/svg" viewBox="0 0 258.793 27.514"><g transform="translate(117.227)"><path d="M99.7,10.571V6.926h2.7V1.4h5.174V6.926h3.175v3.645h-3.175V21.036a2.206,2.206,0,0,0,.353,1.529c.235.235.823.353,1.881.353h.941V26.8l-2.469.118c-2.469.118-4.115-.353-5.056-1.293a3.732,3.732,0,0,1-.823-2.7V10.571Z" transform="translate(-99.7 0.246)"/><path d="M122.435,5.5h.47v5.291c-.353,0-.588-.118-.823-.118h-.588c-2.116,0-3.527.705-4.233,2a8.3,8.3,0,0,0-.588,3.527v9.524H111.5V5.97h4.938V9.38a11.9,11.9,0,0,1,2.116-2.7A5.552,5.552,0,0,1,122.317,5.5Z" transform="translate(-97.626 0.967)"/><path d="M135.78,6.341a8.185,8.185,0,0,1,3.41,2.939,9.654,9.654,0,0,1,1.529,4.115,19.283,19.283,0,0,1,.118,3.88H126.374a5,5,0,0,0,2.116,4.233,5.586,5.586,0,0,0,2.822.705,4.29,4.29,0,0,0,2.822-.941,7.328,7.328,0,0,0,1.058-1.411h5.291A6.532,6.532,0,0,1,138.6,23.39a9.727,9.727,0,0,1-7.408,2.939,10.668,10.668,0,0,1-6.937-2.469c-2-1.646-3.057-4.233-3.057-7.878,0-3.41.941-6.114,2.7-7.878a9.3,9.3,0,0,1,7.055-2.7A14.634,14.634,0,0,1,135.78,6.341Zm-7.76,4.586a5.708,5.708,0,0,0-1.411,3.057h8.936a4.471,4.471,0,0,0-1.411-3.175,4.6,4.6,0,0,0-3.057-1.058A3.824,3.824,0,0,0,128.02,10.926Z" transform="translate(-95.92 0.949)"/><path d="M143.891,5.9V17.893a7.151,7.151,0,0,0,.353,2.587,2.737,2.737,0,0,0,2.822,1.529,3.706,3.706,0,0,0,3.645-2.116,7.6,7.6,0,0,0,.47-3.057V5.9h5.291V25.653h-5.056V22.831c0,.118-.118.235-.353.588a5.113,5.113,0,0,1-.705.823,11.293,11.293,0,0,1-2.352,1.529,8.877,8.877,0,0,1-2.7.353c-2.939,0-4.938-1.058-5.879-3.175a11.823,11.823,0,0,1-.823-5.174V5.9Z" transform="translate(-92.861 1.037)"/><path d="M169.227,7.055a6.643,6.643,0,0,1,2.469,2,4.586,4.586,0,0,1,.941,2.234,28.006,28.006,0,0,1,.235,3.88v11.64h-5.291V14.7a5.605,5.605,0,0,0-.588-2.587,2.77,2.77,0,0,0-2.7-1.411,3.494,3.494,0,0,0-3.057,1.411,6.336,6.336,0,0,0-1.058,3.88v10.7H155V0h5.174V9.406a5.42,5.42,0,0,1,2.587-2.352,6.86,6.86,0,0,1,3.057-.705A9.739,9.739,0,0,1,169.227,7.055Z" transform="translate(-89.978)"/><path d="M180.171,13.731a7.107,7.107,0,0,0,2.116-.47,1.619,1.619,0,0,0,1.058-1.529c0-.823-.235-1.411-.823-1.646a4.863,4.863,0,0,0-2.469-.47,3.119,3.119,0,0,0-2.587.941,3.982,3.982,0,0,0-.706,1.764h-5.056a7.564,7.564,0,0,1,1.411-4.233c1.411-1.764,3.763-2.587,7.055-2.587a12.617,12.617,0,0,1,5.761,1.293c1.646.823,2.587,2.469,2.587,4.821V22.9a2.043,2.043,0,0,0,.353,1.411,1.728,1.728,0,0,0,.706.588v.705h-5.644c-.118-.353-.235-.823-.353-1.176a3.624,3.624,0,0,1-.118-1.176,10.233,10.233,0,0,1-2.469,2,8.107,8.107,0,0,1-3.763.941,6.455,6.455,0,0,1-4.468-1.529A5.5,5.5,0,0,1,171,20.315a5.585,5.585,0,0,1,2.822-5.291,12.629,12.629,0,0,1,4.586-1.293Zm3.175,2.469a4.177,4.177,0,0,1-1.058.47,12.2,12.2,0,0,1-1.411.353l-1.176.235a11.575,11.575,0,0,0-2.352.705,2.3,2.3,0,0,0-1.176,2.234,2.163,2.163,0,0,0,.705,1.881,2.888,2.888,0,0,0,1.764.588,6.232,6.232,0,0,0,3.175-.941,4.531,4.531,0,0,0,1.529-3.527Z" transform="translate(-87.166 0.967)"/><path d="M203.591,7.146c1.293,1.058,2,2.822,2,5.291V25.724H200.3V13.731a4.143,4.143,0,0,0-.47-2.352c-.47-1.058-1.411-1.529-2.939-1.529a3.629,3.629,0,0,0-3.645,2.234,7.6,7.6,0,0,0-.47,3.057v10.7H187.6V5.97h5.056V8.91a9.724,9.724,0,0,1,1.881-2.234,6.216,6.216,0,0,1,4-1.176A7.908,7.908,0,0,1,203.591,7.146Z" transform="translate(-84.247 0.967)"/><path d="M215.458,7.29a5.824,5.824,0,0,1,2.234,2.234V0h5.291V26.808h-5.056V24.1a7.486,7.486,0,0,1-2.469,2.587,6.537,6.537,0,0,1-3.527.823,7.456,7.456,0,0,1-5.879-2.822,10.963,10.963,0,0,1-2.352-7.172,12.686,12.686,0,0,1,2.352-8,7.752,7.752,0,0,1,6.232-2.939A4.9,4.9,0,0,1,215.458,7.29Zm1.176,14.11a7.52,7.52,0,0,0,1.176-4.233c0-2.469-.588-4.115-1.881-5.174a4.109,4.109,0,0,0-2.587-.941,3.527,3.527,0,0,0-3.292,1.764,8.078,8.078,0,0,0-1.058,4.233,7.677,7.677,0,0,0,1.058,4.35,3.673,3.673,0,0,0,3.292,1.646A3.812,3.812,0,0,0,216.634,21.4Z" transform="translate(-81.417)"/></g><path d="M15.05,20.657c0,4-3.527,5.409-7.29,5.409a10.974,10.974,0,0,1-5.879-1.529L.705,25.713H0v-7.29H.823l2.7,4.938a5.428,5.428,0,0,0,4.115,1.881c2.822,0,4.233-1.293,4.233-3.292,0-2.116-1.646-2.939-3.175-3.41l-4-1.176C1.881,16.424,0,15.013,0,12.191,0,8.546,3.292,6.9,7.055,6.9a10.679,10.679,0,0,1,5.291,1.293l1.176-.941h.823v6.82h-.823L10.7,9.016A4.479,4.479,0,0,0,7.055,7.37c-2.587,0-4,1.411-4,3.41,0,1.764.941,2.7,3.175,3.41l4,1.176C12.934,16.424,15.05,17.6,15.05,20.657Z" transform="translate(0 1.213)"/><path d="M31.49,19.028l.588.235a8.785,8.785,0,0,1-8.7,6.82A9.591,9.591,0,0,1,13.5,16.442,9.522,9.522,0,0,1,23.377,6.8c5.526,0,9.054,3.88,9.054,9.642H17.145c.118,4.115,3.057,7.643,7.525,7.643A7.5,7.5,0,0,0,31.49,19.028Zm-14.345-3.41H28.9c-.118-5.526-2.116-8.231-5.644-8.231S17.263,10.445,17.145,15.618Z" transform="translate(2.373 1.195)"/><path d="M49.142,19.869a8.96,8.96,0,0,1-8.7,6.114c-5.526,0-9.642-3.88-9.642-9.759C30.8,10.7,35.15,6.7,40.677,6.7a12.5,12.5,0,0,1,6.349,1.646L48.084,7.17h.823V15.4H48.2l-2.352-6a6.575,6.575,0,0,0-4.821-2c-4.35,0-6.467,3.88-6.467,7.878,0,5.409,3.057,8.583,7.525,8.583a7.023,7.023,0,0,0,6.584-4.35Z" transform="translate(5.415 1.178)"/><path d="M69.375,24.737v.705H62.791V20.387c-.941,3.41-3.175,5.526-6.82,5.526-3.763,0-6.114-2.234-6.114-6.82V8.864L46.8,7.923V7.1h6.467V19.093c0,3.175,1.411,4.821,4.115,4.821,3.41,0,5.291-2.822,5.291-6.467V8.864l-3.057-.941V7.1h6.467V23.8Z" transform="translate(8.227 1.248)"/><path d="M82.585,7.153v6.584h-.823L79.528,8.916a2.326,2.326,0,0,0-1.293-.235c-2.587,0-4.468,2.822-4.468,6.82v8.466l4.7.941v.705H67.3v-.705l3.057-.941V8.916L67.3,7.976V7.153h6.467v4.468C74.472,8.8,76.471,6.8,79.528,6.8,80.7,6.918,81.762,7.035,82.585,7.153Z" transform="translate(11.831 1.195)"/><path d="M100.671,23.514a4.121,4.121,0,0,1-3.88,2.587c-1.764,0-3.763-1.058-3.763-4.115v-.353h-.118c-.588,2.234-2.469,4.468-6.349,4.468-3.527,0-5.761-2.116-5.761-5.056,0-3.292,2.587-5.174,6.349-5.174h5.879V11.4c0-2.234-1.646-3.763-4.115-3.763a8.822,8.822,0,0,0-2.352.235L82.916,13.52h-.823V8.111A19.1,19.1,0,0,1,88.8,6.7c4.7,0,7.525,2.116,7.525,6.349v9.289A1.861,1.861,0,0,0,98.2,24.455a2.138,2.138,0,0,0,1.881-1.293Zm-7.643-5.056v-2l-4.586.118c-2.822.235-3.88,2-3.88,4a3.339,3.339,0,0,0,3.645,3.645C91.265,24.1,93.028,21.633,93.028,18.458Z" transform="translate(14.204 1.178)"/></svg>