<?xml version="1.0" standalone="no"?>
<!DOCTYPE svg PUBLIC "-//W3C//DTD SVG 1.1//EN" "http://www.w3.org/Graphics/SVG/1.1/DTD/svg11.dtd" >
<svg xmlns="http://www.w3.org/2000/svg">
<metadata>
This is a custom SVG webfont generated by Font Squirrel.
Copyright   : Copyright c Veronika Elsner Guenther Flake GbR Hamburg 2006 
Designer    : Guenther Flake 2006 Scangraphic Prepress Technology GmbH 1992
Foundry     : Veronika Elsner Guenther Flake GbR Hamburg
Foundry URL : wwwelsnerflakecom
</metadata>
<defs>
<font id="CastrolSansCon-Regular" horiz-adv-x="1048" >
<font-face units-per-em="2048" ascent="1638" descent="-410" />
<missing-glyph horiz-adv-x="362" />
<glyph unicode=" "  horiz-adv-x="362" />
<glyph unicode="&#x09;" horiz-adv-x="362" />
<glyph unicode="&#xa0;" horiz-adv-x="362" />
<glyph unicode="!" horiz-adv-x="548" d="M197 0v233h209v-233h-209zM197 903v678h209v-682q0 -55 -4 -94l-7 -94l-20 -375h-154l-16 379q-4 55 -6 94t-2 94z" />
<glyph unicode="&#x22;" horiz-adv-x="833" d="M154 1581h182l-23 -469h-137zM500 1581h182l-25 -469h-135z" />
<glyph unicode="#" d="M12 526l19 115h188l37 229q6 37 18 74q-16 -2 -39.5 -3t-37.5 -1h-119l18 115h189l84 526h168l-72 -457q-6 -37 -19 -73q66 8 118 6t118 -2l84 526h170l-74 -457l-8 -37q-4 -18 -10 -36q16 2 30.5 3t28.5 1h133l-18 -115h-184l-37 -229q-6 -37 -19 -74q16 2 30.5 3 t29.5 1h137l-19 -115h-188l-84 -526h-170l74 457l8 38.5t10 36.5q-41 -6 -78 -6h-157l-84 -526h-168l71 457q6 39 19 75q-8 -2 -9 -3t-3 -2t-8 -1h-19h-158zM381 637q66 8 118 6t117 -2l37 229l9 37l8 37h2q-66 -8 -118 -6t-118 2l-23.5 -152.5t-31.5 -150.5z" />
<glyph unicode="$" horiz-adv-x="1003" d="M119 444v54q0 27 2 53h209v-23q0 -29 -1 -60.5t0 -65t4 -66.5t11 -60q16 -57 59 -84.5t103 -27.5q57 0 91 22.5t51.5 58.5t22.5 81t5 92q0 33 -2 67.5t-12 67.5q-12 37 -42 66.5t-67 52t-77 41.5l-73 35q-55 27 -110 59.5t-90 85.5q-39 57 -55.5 132t-16.5 142 q0 76 14.5 142.5t48 117t89 84t137.5 45.5v193h160v-193q90 -12 148 -47.5t92 -91t46.5 -127t12.5 -153.5v-39q0 -18 -2 -39h-211q2 14 2 27v28q0 41 -2 94.5t-21 89.5q-18 41 -57 62.5t-82 21.5q-47 0 -78 -17t-49.5 -46t-26.5 -67t-8 -76q0 -53 9 -88t27.5 -61t49.5 -46 t74 -45l63 -36l64 -36q66 -37 122 -71.5t91 -104.5q29 -59 37 -123.5t8 -130.5q0 -92 -10.5 -168t-43 -132t-94 -94t-161.5 -52v-199h-160v199q-98 20 -157.5 60t-91.5 96.5t-42 132t-10 167.5z" />
<glyph unicode="%" horiz-adv-x="1435" d="M102 975v414q0 106 69 157t169 51q92 0 158.5 -47t66.5 -147v-412q0 -111 -62.5 -167t-170.5 -56q-98 0 -164 51.5t-66 155.5zM250 991q0 -41 20.5 -67.5t63.5 -26.5q41 0 61.5 24.5t20.5 65.5v402q0 39 -23.5 60t-60.5 21q-43 0 -62.5 -27.5t-19.5 -68.5v-383zM362 -25 l566 1606h139l-561 -1606h-144zM874 180v418q0 106 67 156.5t165 50.5q100 0 163.5 -51.5t63.5 -155.5v-422q0 -109 -65.5 -155t-165.5 -46q-98 0 -163 50.5t-65 154.5zM1024 201q0 -43 17.5 -72t64.5 -29q49 0 64.5 31t15.5 74v393q0 37 -22.5 58.5t-59.5 21.5t-58.5 -21.5 t-21.5 -58.5v-397z" />
<glyph unicode="&#x26;" horiz-adv-x="1218" d="M98 426q0 80 16.5 144.5t47.5 119.5t76 106.5t102 102.5q-66 92 -112 184.5t-46 208.5q0 74 25.5 131.5t71 98.5t105.5 62.5t132 21.5q68 0 127 -19.5t103.5 -57.5t70 -93.5t25.5 -126.5q0 -72 -19.5 -132.5t-52.5 -113.5t-77 -101.5t-93 -95.5l120 -189q60 -93 114 -194 l4 2q29 66 62 129l69 127h221l-234 -436q20 -37 40 -59.5t43.5 -35.5t52 -18.5t69.5 -5.5v-186q-25 -4 -49.5 -7t-50.5 -3q-78 0 -133.5 42t-91.5 105q-72 -82 -152 -122t-190 -40q-104 0 -179 34t-123.5 94.5t-71 143.5t-22.5 179zM309 422q0 -47 9.5 -94t33 -85 t60.5 -61.5t92 -23.5q78 0 130 42t87 107l-229 352q-12 18 -22 37l-19 41q-74 -66 -108 -141.5t-34 -173.5zM391 1280q0 -80 30 -136.5t73 -119.5q59 59 100 124.5t41 151.5q0 53 -31 88t-86 35q-63 0 -95 -42t-32 -101z" />
<glyph unicode="'" horiz-adv-x="466" d="M141 1581h183l-23 -469h-137z" />
<glyph unicode="(" horiz-adv-x="686" d="M127 578q0 121 17.5 255t52 266t86 256t116.5 226h187q-47 -80 -80 -166t-60 -174q-53 -170 -75.5 -327.5t-22.5 -335.5q0 -90 5 -173t17.5 -164t31 -162t44.5 -167q27 -88 60 -174t80 -166h-187q-68 102 -118 227t-84.5 257t-52 265.5t-17.5 256.5z" />
<glyph unicode=")" horiz-adv-x="686" d="M98 -428q59 111 104.5 234.5t75 252.5t44 261.5t14.5 257.5q0 178 -24.5 335.5t-75.5 327.5q-27 88 -60 174t-78 166h187q35 -53 62.5 -111.5t51.5 -117.5q78 -190 118 -380t40 -394q0 -207 -40 -395.5t-118 -381.5q-25 -59 -52.5 -117.5t-61.5 -111.5h-187z" />
<glyph unicode="*" horiz-adv-x="866" d="M111 1415l49 150l104 -38q51 -19 103 -42q-8 55 -9.5 110.5t-3.5 110.5h158q-2 -55 -3 -110.5t-9 -110.5q51 23 102 42l105 38l49 -150q-53 -16 -107.5 -30.5t-107.5 -26.5q37 -41 71 -84l70 -88l-129 -92l-61 93l-60 93q-27 -49 -58 -94l-63 -92l-127 92l69 88 q34 43 73 84q-53 12 -107.5 26.5t-107.5 30.5z" />
<glyph unicode="+" d="M88 510v152h322q18 0 41 -7q-6 20 -7 41v326h164v-326q0 -20 -6 -41q20 6 41 7h320v-152h-320q-20 0 -41 6q6 -23 6 -41v-325h-164v325q0 18 7 41q-23 -6 -41 -6h-322z" />
<glyph unicode="," horiz-adv-x="428" d="M111 0v231h206v-186q0 -66 -9 -118t-32.5 -94t-62.5 -75.5t-100 -62.5l-2 153q51 27 65 66t21 94q-12 -6 -21.5 -7t-21.5 -1h-43z" />
<glyph unicode="-" horiz-adv-x="626" d="M115 524v193h397v-193h-397z" />
<glyph unicode="." horiz-adv-x="428" d="M111 0v240h206v-240h-206z" />
<glyph unicode="/" horiz-adv-x="849" d="M84 -379l477 1960h201l-471 -1960h-207z" />
<glyph unicode="0" d="M125 438v643q0 47 3 98.5t12.5 100.5t28.5 96t50 84q55 66 139 93.5t168 27.5q86 0 167 -28.5t138 -94.5q37 -43 55.5 -93t26 -104.5t8.5 -110.5t1 -108v-596q0 -88 -12.5 -179t-69.5 -163t-140.5 -100.5t-173.5 -28.5q-98 0 -188 35t-145 121q-41 63 -54.5 148 t-13.5 159zM334 385q0 -29 3 -57.5t11 -56t23 -48.5q55 -76 151 -76q70 0 108 28t56.5 72t22.5 97t4 107v608v117q0 61 -15.5 113t-54.5 86t-117 34q-74 0 -112.5 -33t-57 -82t-20.5 -108.5t-2 -112.5v-635v-53z" />
<glyph unicode="1" d="M225 1161v154q57 2 104.5 15t88.5 54t56 91.5t15 105.5h189v-1581h-209v1124q0 20 6 43q-23 -6 -43 -6h-207z" />
<glyph unicode="2" d="M127 0v168l471 711q55 84 75.5 155.5t20.5 136.5q0 43 -5 84t-21.5 73t-48 52.5t-87.5 20.5q-63 0 -99 -24.5t-53.5 -64.5t-21.5 -89t-4 -101v-71h-204v39q0 39 2 85t8 92t18 90t35 77q55 82 143 114.5t185 32.5q190 0 278 -104.5t88 -288.5q0 -94 -19.5 -182t-72.5 -168 l-313 -482l-58 -85l-59 -83l2 -6q51 4 101.5 6t103.5 2h328v-190h-793z" />
<glyph unicode="3" d="M121 406v77h205v-51q0 -51 3 -101t20.5 -91t54 -67t104.5 -26q61 0 99 18.5t58.5 50.5t26.5 73t6 86v137q0 82 -24.5 124t-66.5 60.5t-98 19.5t-120 1v180q72 0 127 4t93 26.5t58.5 69.5t20.5 131l2 111q0 82 -39 126t-127 44q-61 0 -96 -24.5t-50.5 -64.5t-18.5 -88 t-3 -97v-52h-206v56q0 45 2 93t13 94t31.5 88t57.5 75q55 51 127 71.5t145 20.5q92 0 181.5 -34t138.5 -117q29 -49 37 -101.5t8 -109.5v-86q0 -27 -2 -52.5t-6 -52.5q-12 -90 -52 -136t-126 -75v-6q66 -29 104.5 -60.5t59 -73.5t26.5 -94.5t6 -119.5v-80q-2 -59 -9 -121.5 t-30 -109.5q-23 -49 -60.5 -83t-84.5 -54.5t-99.5 -30t-101.5 -9.5q-119 0 -195.5 28t-120.5 83t-61.5 135.5t-17.5 184.5z" />
<glyph unicode="4" d="M92 377v176l465 1028h234v-993q0 -20 -7 -41q20 6 41 6h136v-176h-136q-20 0 -41 6q6 -23 7 -41v-342h-209v342q0 18 6 41q-23 -6 -41 -6h-455zM272 549q31 2 60.5 3t60.5 1h150q16 0 26.5 -1t26.5 -5q-4 16 -5 26.5t-1 26.5v379q0 78 2 155.5t6 155.5l-10 2l-71 -181 l-75 -179l-81 -194q-40 -97 -89 -189z" />
<glyph unicode="5" d="M141 355v65v76h209v-68q0 -49 4 -99t21.5 -91t52.5 -67t96 -26q47 0 80 17.5t54.5 47.5t31.5 68.5t10 81.5v328q0 45 -5 87t-23.5 75t-51 52.5t-88.5 19.5q-90 0 -130 -50.5t-52 -134.5h-184l41 819h688v-188h-504q-4 -98 -10 -194.5t-23 -194.5l9 -4q47 61 102 89 t133 28t146.5 -35t109.5 -105q35 -61 43 -135t8 -141v-289q0 -190 -96 -301t-293 -111q-55 0 -108.5 12.5t-100.5 37t-84 63.5t-57 92q-12 33 -18.5 61.5t-8.5 56t-2 57.5z" />
<glyph unicode="6" d="M145 362v754q0 106 19.5 193.5t67 147t125 92t194.5 32.5q82 0 151.5 -23.5t118.5 -69.5t77 -111.5t28 -151.5v-54h-197v43q0 86 -41 140.5t-145 54.5q-86 0 -137.5 -47t-51.5 -135v-148q0 -39 -3 -76.5t-7 -76.5l8 -4q51 53 106.5 82.5t131.5 29.5t146.5 -28.5 t119.5 -87.5t60.5 -129t11.5 -144v-299q0 -176 -105.5 -273.5t-277.5 -97.5q-400 0 -400 387zM354 360q0 -90 41 -152.5t142 -62.5q100 0 141 62.5t41 152.5v295q0 92 -42 150.5t-140 58.5t-140.5 -58t-42.5 -151v-295z" />
<glyph unicode="7" d="M137 1366v190h789v-172q-59 -98 -111.5 -196t-93.5 -205q-94 -238 -148.5 -482.5t-76.5 -500.5h-224q23 248 80.5 485.5t145.5 468.5q35 92 72.5 169t68.5 132q37 66 70 117q-39 -4 -82 -5t-82 -1h-408z" />
<glyph unicode="8" d="M121 342v160q0 98 26.5 160.5t61.5 99.5q39 41 90 63q-94 57 -120.5 140.5t-26.5 189.5q0 94 20.5 173t65.5 135.5t115.5 87t168.5 30.5t169 -29.5t115 -84t65.5 -131t21.5 -171.5q0 -49 -5 -98t-19.5 -94t-42 -83t-72.5 -67q43 -16 77 -53q29 -31 54.5 -85t25.5 -140 v-201q0 -197 -100 -283t-291 -86q-184 0 -291.5 86t-107.5 281zM334 428q0 -49 3 -101.5t20.5 -93t53 -67.5t103.5 -27q70 0 107.5 29t55 73t19.5 98t2 107v68q0 43 -7 84t-27.5 72.5t-55.5 51t-90 19.5q-61 0 -97 -21.5t-55.5 -57t-25.5 -80.5t-6 -93v-61zM365 1161 q0 -47 2 -94t16 -85t47 -62.5t94 -24.5q63 0 96 28.5t46.5 71.5t13.5 92v93q0 41 -2 84t-15.5 76.5t-45 55t-91.5 21.5q-61 0 -94 -23.5t-48 -60.5t-17 -83t-2 -89z" />
<glyph unicode="9" d="M121 911v299q0 88 27.5 157t77.5 116t121 72.5t157 25.5q399 0 399 -387v-754q0 -109 -19.5 -194.5t-66.5 -145t-125 -92.5t-194 -33q-84 0 -153 24t-118 70t-76.5 111.5t-27.5 151.5v53h196v-43q0 -86 41 -140.5t146 -54.5q86 0 137 47.5t51 135.5v147q0 39 3 77t8 77 l-9 4q-51 -53 -106 -83t-131 -30t-146.5 29t-119.5 88t-60.5 128.5t-11.5 143.5zM330 901q0 -92 42 -150.5t140 -58.5t140 58.5t42 150.5v295q0 90 -41 152.5t-141 62.5t-141 -62.5t-41 -152.5v-295z" />
<glyph unicode=":" horiz-adv-x="483" d="M164 0v240h207v-240h-207zM164 776v240h207v-240h-207z" />
<glyph unicode=";" horiz-adv-x="483" d="M164 0v231h207v-186q0 -66 -9.5 -118t-33 -94t-62.5 -75.5t-100 -62.5l-2 153q51 27 65.5 66t20.5 94q-12 -6 -21.5 -7t-21.5 -1h-43zM164 776v240h207v-240h-207z" />
<glyph unicode="&#x3c;" d="M164 504v145l723 432v-170l-420 -243l-81 -45q-40 -23 -81 -43v-5q41 -20 81 -43l81 -45l420 -243v-170z" />
<glyph unicode="=" d="M88 342v152h875v-152h-875zM88 684v152h875v-152h-875z" />
<glyph unicode="&#x3e;" d="M164 82v170l422 244l82 45l82 43v4l-82 43l-82 45l-422 244v170l723 -433v-145z" />
<glyph unicode="?" horiz-adv-x="878" d="M125 1128v95q0 84 16.5 153.5t54 118.5t100 76.5t155.5 27.5q104 0 167.5 -26.5t97.5 -74.5t44 -115.5t10 -151.5q0 -72 -7 -123t-21.5 -93t-37 -79t-53.5 -82l-78 -113q-35 -49 -50 -96t-15 -108v-191h-207v184q0 47 4 85t15.5 72t29 66.5t43.5 71.5l107 158 q37 55 52 97t15 110q0 35 2 77t-7 77.5t-33.5 60.5t-75.5 25q-41 0 -66 -12.5t-37 -35t-16 -53.5t-4 -65v-136h-205zM301 0v229h207v-229h-207z" />
<glyph unicode="@" horiz-adv-x="2265" d="M180 399q0 219 88 396.5t236.5 303.5t342 194.5t404.5 68.5q166 0 317.5 -49t266.5 -143.5t182.5 -230.5t67.5 -310q0 -145 -48 -261t-132 -198t-202 -126t-255 -44h-217l24 176q-20 -41 -53 -74.5t-72.5 -58.5t-85 -39t-90.5 -14q-74 0 -126 28.5t-83.5 75.5t-46 107.5 t-14.5 124.5q0 113 38 223t108.5 197.5t171 140.5t223.5 53q76 0 150.5 -12.5t146.5 -30.5l-105 -750h70q88 0 163.5 40t131 105.5t87.5 147.5t32 166q0 152 -51.5 266.5t-140.5 190.5t-212 113.5t-266 37.5q-164 0 -319.5 -60t-276.5 -166.5t-194.5 -252t-73.5 -315.5 q0 -344 175 -517t519 -173q51 0 110.5 3t119 10t115.5 20.5t103 33.5l33 -145q-51 -23 -116.5 -37t-135 -22.5t-137.5 -11.5t-123 -3q-199 0 -356.5 52.5t-267 155.5t-168 256.5t-58.5 356.5zM877 328q0 -37 5 -72t20.5 -60.5t43 -42t70.5 -16.5q70 0 117 33t77.5 83 t47 109.5t24.5 112.5l47 309q-29 6 -55.5 10.5t-54.5 4.5q-86 0 -149.5 -46t-106.5 -117t-64.5 -152.5t-21.5 -155.5z" />
<glyph unicode="A" horiz-adv-x="1026" d="M23 0l362 1581h283l333 -1581h-225l-92 489h-344l-96 -489h-221zM375 668l38.5 4t39.5 2h129q18 0 35 -2l34 -4q-25 82 -38 166t-29 167q-8 43 -16.5 95.5t-15.5 106.5l-13.5 106.5t-12.5 95.5h-10q-6 -43 -14 -95l-17 -107q-8 -54 -17 -106l-17 -96l-33 -168 q-16 -87 -43 -165z" />
<glyph unicode="B" horiz-adv-x="1134" d="M150 0v1581h440q209 0 298 -104.5t89 -307.5v-49q0 -100 -28.5 -156.5t-63.5 -84.5q-39 -35 -90 -45q61 -14 112 -58q41 -37 77 -109.5t36 -197.5v-55q0 -207 -98.5 -310.5t-323.5 -103.5h-448zM354 180q14 4 25.5 5t28.5 1h157q53 0 98.5 8.5t77 33t50 69.5t18.5 119v35 q0 49 -7 98t-28.5 88t-58.5 63.5t-99 24.5h-208q-16 0 -27.5 1t-26.5 5q4 -14 5 -25.5t1 -27.5v-445q0 -16 -1 -27.5t-5 -25.5zM354 901q14 4 25.5 5t28.5 1h163q45 0 82 11.5t61.5 38t38 71.5t13.5 113v28q0 80 -14.5 125t-43 67.5t-70.5 28t-95 5.5h-135q-16 0 -27.5 1 t-26.5 5q4 -14 5 -25.5t1 -27.5v-394q0 -16 -1 -27.5t-5 -25.5z" />
<glyph unicode="C" horiz-adv-x="1050" d="M123 549v514q0 111 13.5 209t57.5 172t128 118t225 44q119 0 197.5 -33t127 -91.5t69 -137t20.5 -173.5v-88h-213v82q0 47 -7.5 93.5t-29 83t-60.5 60t-102 23.5q-82 0 -126 -36.5t-63.5 -92t-22.5 -121t-3 -122.5v-666q0 -102 47 -166.5t160 -64.5q61 0 101 20.5 t63.5 55t33 79.5t9.5 95v81h213v-88q0 -96 -21.5 -174t-70 -133t-128 -86t-196.5 -31q-154 0 -239 45.5t-126 123t-49 182t-8 223.5z" />
<glyph unicode="D" horiz-adv-x="1159" d="M147 0v1581h451q98 0 196.5 -40t157.5 -122q29 -41 44.5 -88t23.5 -97t9 -101.5t1 -98.5v-506q0 -55 -2 -111.5t-13 -111.5t-34 -105t-63 -91q-66 -66 -145 -87.5t-171 -21.5h-455zM352 180q14 4 25.5 5t28.5 1h192q80 0 124 29t65.5 75t26.5 105.5t5 120.5v551 q0 63 -5 121.5t-26.5 104.5t-65.5 74t-124 28h-192q-16 0 -27.5 1t-26.5 5q4 -14 5 -25.5t1 -27.5v-1115q0 -16 -1 -27.5t-5 -25.5z" />
<glyph unicode="E" horiz-adv-x="976" d="M145 0v1581h740v-186h-494q-20 0 -41 6q6 -23 6 -41v-418q0 -20 -6 -41q20 6 41 6h457v-182h-457q-20 0 -41 6q6 -23 6 -41v-469q0 -20 -6 -41q20 6 41 6h494v-186h-740z" />
<glyph unicode="F" horiz-adv-x="917" d="M145 0v1581h717v-186h-471q-20 0 -41 6q6 -23 6 -41v-418q0 -20 -6 -41q20 6 41 6h416v-182h-416q-20 0 -41 6q6 -23 6 -41v-690h-211z" />
<glyph unicode="G" horiz-adv-x="1146" d="M125 567v514q0 119 20.5 215.5t70.5 165t137 106.5t220 38q229 0 334 -121t105 -332v-53h-211v53q0 55 -12.5 104.5t-39 86t-70.5 58t-108 21.5q-80 0 -126 -29.5t-70.5 -78.5t-31.5 -111.5t-7 -128.5v-481q0 -66 2 -141.5t22.5 -141t68.5 -109.5t138 -44q72 0 118 27.5 t71.5 72.5t36 102.5t10.5 118.5q0 18 -1 49t-1 64t1 62.5t7 45.5q-14 -4 -25.5 -5t-27.5 -1h-232v183h490v-877h-180v72q0 20 4 40l8 40l-10 2q-47 -90 -116 -134.5t-173 -44.5q-141 0 -224 50.5t-127 133.5t-57.5 189t-13.5 219z" />
<glyph unicode="H" horiz-adv-x="1206" d="M150 0v1581h210v-639q0 -20 -6 -41q20 6 41 6h416q18 0 41 -6q-6 20 -6 41v639h211v-1581h-211v690q0 18 6 41q-23 -6 -41 -6h-416q-20 0 -41 6q6 -23 6 -41v-690h-210z" />
<glyph unicode="I" horiz-adv-x="509" d="M150 0v1581h210v-1581h-210z" />
<glyph unicode="J" horiz-adv-x="937" d="M59 371v135h213v-107q0 -45 2 -88t16.5 -77.5t48.5 -56t97 -21.5q61 0 94 23.5t47.5 60t16.5 83t2 91.5v1167h211v-1167q0 -96 -14.5 -177t-55.5 -139.5t-112.5 -90.5t-186.5 -32q-117 0 -190.5 31t-115.5 84t-57.5 125t-15.5 156z" />
<glyph unicode="K" horiz-adv-x="1071" d="M145 0v1581h211v-451q0 -72 -2 -144.5t-6 -143.5l10 -2q98 193 209 373l221 368h244l-473 -764l494 -817h-250l-228 389q-113 193 -217 393l-10 -2q4 -72 6 -144.5t2 -143.5v-492h-211z" />
<glyph unicode="L" horiz-adv-x="921" d="M147 0v1581h211v-1360q0 -20 -6 -41q20 6 41 6h494v-186h-740z" />
<glyph unicode="M" horiz-adv-x="1646" d="M147 0v1581h324l268 -1008l44 -171q22 -85 40 -173h11q18 86 38 172l43 172l259 1008h323v-1581h-199v946q0 92 2.5 183.5t6.5 183.5l-13 2q-23 -106 -49 -212l-55 -212l-236 -891h-252l-245 893l-56 210l-51 212l-12 -2q4 -86 6 -167t2 -167v-979h-199z" />
<glyph unicode="N" horiz-adv-x="1245" d="M150 0v1581h260l344 -860l54 -141q22 -57 36 -103.5t25 -89.5l26 -100l10 4q-2 45 -3 99l-2 112l-2 111q-1 54 -1 100v868h199v-1581h-260l-349 889q-37 94 -73.5 200.5t-63.5 235.5l-10 -2q2 -41 4 -92t3 -104.5t1 -104.5v-92v-930h-198z" />
<glyph unicode="O" horiz-adv-x="1134" d="M123 551v479q0 121 15.5 225.5t63.5 182.5t135 123t230 45t230.5 -45t135.5 -123t63.5 -182.5t15.5 -225.5v-479q0 -121 -15.5 -225.5t-63.5 -182t-135 -123t-231 -45.5q-143 0 -230 45.5t-135 123t-63.5 182t-15.5 225.5zM334 537q0 -63 4 -131t26.5 -123.5t69.5 -91 t133 -35.5t133.5 35.5t70 91t26.5 123t4 131.5v512q0 63 -4 129.5t-26.5 122t-70 90t-133.5 34.5t-133 -34.5t-69.5 -90t-26.5 -122t-4 -129.5v-512z" />
<glyph unicode="P" horiz-adv-x="1060" d="M150 0v1581h419q117 0 195 -29.5t125 -86t67.5 -139.5t20.5 -189v-37q0 -92 -20.5 -170t-68.5 -134.5t-125 -89t-188 -32.5h-165q-16 0 -27.5 1t-26.5 5q4 -14 5 -25.5t1 -27.5v-627h-212zM354 850q20 6 58 6h120q68 0 113 15.5t71.5 44t38 68.5t11.5 89v76q0 55 -8 101 t-30.5 78t-62.5 49.5t-106 17.5h-147q-20 0 -30.5 2t-27.5 6q4 -16 5 -26.5t1 -26.5v-447q0 -16 -1 -26.5t-5 -26.5z" />
<glyph unicode="Q" horiz-adv-x="1136" d="M123 551v479q0 121 15.5 225.5t63.5 182.5t135 123t230 45t230.5 -45t135.5 -123t63.5 -182.5t15.5 -225.5v-479q0 -57 -1 -117.5t-10.5 -119t-32 -111.5t-63.5 -99l117 -120l-117 -121l-145 147q-47 -18 -95.5 -26.5t-97.5 -8.5q-143 0 -230 45.5t-135 123t-63.5 182 t-15.5 225.5zM334 537q0 -63 4 -130t26.5 -122.5t69.5 -90t133 -34.5q12 0 26 2l25 4q-39 29 -70 61l-67 68l117 123l79 -80q38 -39 73 -86q37 61 44 138t7 147v512q0 63 -4 129.5t-26.5 122t-70 90t-133.5 34.5t-133 -34.5t-69.5 -90t-26.5 -122t-4 -129.5v-512z" />
<glyph unicode="R" horiz-adv-x="1130" d="M145 0v1581h435q227 0 327.5 -101.5t100.5 -324.5q0 -61 -7.5 -118.5t-28 -106.5t-58 -90t-99.5 -68v-6q35 -16 61.5 -34.5t49.5 -49.5q37 -53 43 -118.5t10 -129.5l8 -123q4 -80 17.5 -159.5t48.5 -151.5h-228q-29 51 -38 120.5t-13 147.5l-4 111q-2 63 -9 120.5 t-28 100.5q-23 47 -65.5 70.5t-92.5 23.5h-151q-49 0 -74 6q4 -14 5 -25t1 -28v-647h-211zM350 868q14 4 25.5 5t27.5 1h183q63 0 105 20.5t66.5 56.5t34 85t9.5 107q0 82 -16.5 131t-48 75.5t-76 36t-99.5 9.5h-158q-16 0 -27 1t-26 5q4 -14 5 -25.5t1 -27.5v-426 q0 -16 -1 -28t-5 -26z" />
<glyph unicode="S" horiz-adv-x="1058" d="M96 412v73h215v-71q0 -51 11.5 -98.5t36 -82t65.5 -56t102 -21.5q111 0 167.5 56t56.5 191q0 66 -20.5 113t-70.5 92q-31 29 -64 52l-69 47l-151 100q-53 35 -98.5 75t-78 88t-51 109.5t-18.5 139.5q0 92 30.5 164.5t85 121.5t129.5 75t165 26q203 0 303 -107.5 t100 -300.5v-68h-213v68q0 45 -8 86t-28.5 73t-58.5 50t-95 18q-92 0 -145.5 -54t-53.5 -146q0 -55 19.5 -98.5t52 -78t72.5 -63.5t83 -55l90 -58q68 -43 123.5 -86t95 -95t62.5 -118.5t23 -158.5q0 -100 -25 -181t-77 -138.5t-134 -88.5t-199 -31q-113 0 -193.5 31 t-133 87.5t-78 137.5t-25.5 181z" />
<glyph unicode="T" horiz-adv-x="901" d="M37 1395v186h823v-186h-272q-20 0 -41 6q6 -23 6 -41v-1360h-211v1360q0 18 6 41q-23 -6 -41 -6h-270z" />
<glyph unicode="U" horiz-adv-x="1146" d="M127 492v1089h211v-971q0 -59 -1 -123v-11q0 -57 9 -111q16 -94 71.5 -150.5t155.5 -56.5q70 0 125.5 34.5t81.5 100.5q14 35 19.5 75t7.5 82q1 28 1 55v27q-1 41 -1 78v971h211v-1014v-114q0 -57 -8 -115q-27 -186 -139.5 -274.5t-297.5 -88.5q-113 0 -213 40t-163 139 q-49 78 -59.5 163t-10.5 175z" />
<glyph unicode="V" horiz-adv-x="1087" d="M23 1581h219l209 -938q20 -92 37 -183l34 -184h10l38 183q19 90 42 182l230 940h221l-428 -1581h-234z" />
<glyph unicode="W" horiz-adv-x="1656" d="M27 1581h209l149 -907q16 -100 29.5 -199.5t25.5 -202.5l13 -2l32 200q16 99 37 200l180 911h242l164 -911q18 -100 34 -199l29 -199h13q14 100 30.5 198.5l34.5 199.5l170 911h209l-325 -1581h-246l-168 872l-34.5 194.5t-31.5 195.5h-10l-34 -195q-17 -96 -38 -195 l-176 -872h-252z" />
<glyph unicode="X" d="M10 0l383 834l-356 747h239l126 -294q62 -146 118 -298h6q55 152 118 298l124 294h238l-359 -747l385 -834h-237l-142 322q-70 160 -133 325h-6q-61 -166 -132 -325l-142 -322h-230z" />
<glyph unicode="Y" horiz-adv-x="1103" d="M10 1581h230l206 -463l49 -112q24 -55 46 -115h8l46 114q24 56 50 111l215 465h230l-439 -893v-688h-211v676z" />
<glyph unicode="Z" horiz-adv-x="1087" d="M59 0v170l625 1073l49 81l51 81q-39 -2 -75.5 -3t-75.5 -1h-467v180h854v-156l-633 -1087q-23 -41 -48 -81l-50 -81q37 2 74.5 3t74.5 1h582v-180h-961z" />
<glyph unicode="[" horiz-adv-x="663" d="M145 -428v2007h420v-186h-174q-20 0 -41 6q6 -23 6 -41v-1565q0 -20 -6 -41q20 6 41 6h174v-186h-420z" />
<glyph unicode="\" horiz-adv-x="849" d="M84 1581h201l477 -1960h-207z" />
<glyph unicode="]" horiz-adv-x="663" d="M96 -242h174q18 0 41 -6q-6 20 -6 41v1565q0 18 6 41q-23 -6 -41 -6h-174v186h420v-2007h-420v186z" />
<glyph unicode="^" d="M76 791l379 790h139l379 -790h-142l-156 325q-79 162 -147 330h-8q-68 -168 -146 -330l-157 -325h-141z" />
<glyph unicode="_" horiz-adv-x="839" d="M0 -176h842v-152h-842v152z" />
<glyph unicode="`" horiz-adv-x="1024" d="M348 1614h227l101 -287h-162z" />
<glyph unicode="a" horiz-adv-x="911" d="M84 276v52q0 123 67.5 206.5t184.5 133.5l67 28l75 31q36 14 62.5 34.5t42 49.5t15.5 76q0 129 -139 129q-47 0 -78 -11.5t-47.5 -32t-22.5 -50t-6 -64.5v-47h-205v47q0 174 94.5 247t270.5 73q166 0 249 -72t83 -232v-780q0 -25 2 -48t12 -46h-195q-4 8 -6 16 q-4 20 -4 41q0 16 -1 23.5t3 13.5l-8 2q-20 -33 -53 -55q-29 -20 -73 -36.5t-105 -16.5q-59 0 -111.5 15t-91.5 50t-60.5 90t-21.5 133zM291 283q0 -68 38 -95.5t103 -27.5q78 0 119 49t41 127v192v28q0 9 1 16.5t3 16.5t4 27q-8 -6 -16 -14q-16 -12 -43 -24l-103 -48 q-57 -27 -102 -69.5t-45 -124.5v-53z" />
<glyph unicode="b" horiz-adv-x="966" d="M129 0v1581h207v-309q0 -53 -3 -108.5t-7 -108.5l8 -2q49 63 99 94t134 31q98 0 155.5 -35t87.5 -93.5t38 -132t8 -149.5v-385q0 -80 -10 -151.5t-42 -126t-89.5 -86t-151.5 -31.5q-78 0 -132 28.5t-101 89.5l-8 -2q10 -27 10 -51v-53h-203zM338 412q0 -43 3 -90.5 t18.5 -85t47 -62t87.5 -24.5q57 0 88.5 24.5t47 62t18.5 84t3 91.5v342q0 45 -3 91t-18.5 84t-47 62.5t-88.5 24.5q-55 0 -87 -24.5t-47.5 -62.5t-18.5 -85t-3 -90v-342z" />
<glyph unicode="c" horiz-adv-x="917" d="M109 381v356q0 94 11 175t49 140.5t108.5 92.5t191.5 33q188 0 271 -85t83 -241v-90h-198v57q0 37 -4.5 72t-19.5 62.5t-45 45t-81 17.5q-63 0 -97 -24.5t-48.5 -63.5t-15.5 -86t-1 -92v-347q0 -41 2 -88t16.5 -87t45.5 -65.5t88 -25.5t90 20.5t48 53.5t18.5 75t3.5 85 v80h200v-82q0 -100 -17 -174t-60 -123t-114 -73t-177 -24q-104 0 -172 29t-107 82t-54 128t-15 167z" />
<glyph unicode="d" horiz-adv-x="966" d="M106 383v369q0 82 6.5 164.5t57.5 152.5q43 59 98.5 84t126.5 25q84 0 133.5 -31t100.5 -94l10 2q-4 31 -6 51t-3 38.5t-2 39t-1 51.5v346h207v-1581h-201v49q0 25 10 55l-8 2q-49 -63 -101.5 -90.5t-136.5 -27.5q-92 0 -149.5 31.5t-89 86t-42 126t-10.5 151.5zM311 412 q0 -45 3 -91.5t18.5 -84t47.5 -62t89 -24.5q55 0 87 24.5t47 62t18.5 85t3.5 90.5v342q0 43 -3.5 90t-18.5 85t-47 62.5t-87 24.5q-57 0 -89 -24.5t-47.5 -62.5t-18.5 -84t-3 -91v-342z" />
<glyph unicode="e" horiz-adv-x="937" d="M102 391v367q0 94 15.5 171t56.5 132t111.5 86t181.5 31q104 0 176 -26t116 -75t63.5 -119.5t19.5 -158.5v-273h-488q-16 0 -27.5 1t-25.5 5q4 -10 4 -23v-30v-168q0 -76 41 -125t121 -49q55 0 88 17.5t51.5 47t24.5 66.5t6 76v47h205v-49q0 -170 -88 -268.5t-287 -98.5 q-111 0 -182.5 30t-111.5 84t-55.5 131t-15.5 171zM301 692q10 4 24.5 5t26.5 1h242q23 0 47 -6q-6 31 -6 60v49q0 43 -5 82t-22.5 68.5t-51.5 47t-89 17.5q-51 0 -83 -16.5t-49.5 -46t-23.5 -68.5t-6 -84v-49q-2 -10 -2 -21q-2 -10 -2 -20v-19z" />
<glyph unicode="f" horiz-adv-x="575" d="M43 983v170h94q23 0 45 -6q-6 27 -6 53v119q0 61 9.5 112.5t38 86t80.5 54t140 19.5q12 0 31 -1t35 -1q20 -2 39 -2v-172h-23q-10 0 -19 1t-15 1q-35 0 -56.5 -4t-34 -16.5t-16.5 -35t-4 -58.5v-103q0 -27 -6 -53q20 6 45 6h129v-170h-129q-25 0 -45 6q6 -23 6 -45v-944 h-205v944q0 23 6 45q-23 -6 -45 -6h-94z" />
<glyph unicode="g" horiz-adv-x="960" d="M106 391v385q0 55 2.5 116.5t22.5 115.5q35 90 99.5 130t158.5 40q84 0 141.5 -31t104.5 -98l8 4q-10 27 -10 49v51h196v-1077q0 -115 -9 -207t-47 -156.5t-111.5 -98.5t-202.5 -34q-176 0 -257 75t-81 222v47h190v-39q0 -63 32 -103t114 -40t125 47t43 127v104 q0 55 12 115l-10 2q-39 -66 -89.5 -97.5t-125.5 -31.5q-94 0 -153.5 29t-93.5 80t-46.5 120.5t-12.5 153.5zM311 377q0 -41 5.5 -78t22.5 -64.5t48 -45t80 -17.5t80 20.5t48 54.5t23.5 73.5t6.5 80.5v375q0 41 -4.5 84t-19.5 78t-47 56.5t-85 21.5t-84 -18.5t-47 -48 t-21.5 -69.5t-5.5 -83v-420z" />
<glyph unicode="h" horiz-adv-x="976" d="M131 0v1581h205v-362q0 -29 -1 -47.5t-2 -35t-3 -35t-4 -46.5l8 -4q98 127 252 127q129 0 199.5 -80t70.5 -203v-895h-205v799q0 41 -2 80t-15 69.5t-42 49t-82 18.5q-49 0 -83 -18.5t-53.5 -49t-28.5 -70.5t-9 -83v-795h-205z" />
<glyph unicode="i" horiz-adv-x="466" d="M131 0v1153h205v-1153h-205zM131 1354v227h205v-227h-205z" />
<glyph unicode="j" horiz-adv-x="464" d="M-31 -240q10 -2 22 -2h21q76 0 96.5 29t20.5 102v1264h205v-1253q0 -86 -8.5 -148.5t-37 -102.5t-83.5 -58.5t-150 -18.5h-43q-20 0 -43 2v186zM129 1354v227h205v-227h-205z" />
<glyph unicode="k" horiz-adv-x="878" d="M127 0v1581h205v-655v-64q0 -27 -1 -51.5t-3 -50t-4 -62.5l10 -2q61 119 129 231l137 226h225l-303 -494l338 -659h-225l-156 302q-78 151 -145 306l-10 -2q2 -31 4 -53.5t3 -41.5t1 -42v-55v-414h-205z" />
<glyph unicode="l" horiz-adv-x="466" d="M129 0v1581h205v-1581h-205z" />
<glyph unicode="m" horiz-adv-x="1443" d="M131 0v1153h197v-49q0 -25 -11 -55l9 -2q53 61 108 96t139 35t138.5 -38t91.5 -110q49 72 109.5 110t150.5 38q117 0 187.5 -68t70.5 -184v-926h-205v834q0 37 -4 69.5t-18.5 57t-40 40t-70.5 15.5q-80 0 -117 -60.5t-37 -152.5v-803h-204v817q0 37 -4.5 73t-18.5 63.5 t-40.5 45t-72.5 17.5q-45 0 -74.5 -18.5t-47 -49t-24.5 -70.5t-7 -83v-795h-205z" />
<glyph unicode="n" horiz-adv-x="976" d="M131 0v1153h199v-47q0 -16 -3 -28.5t-8 -26.5l9 -2q98 129 258 129q135 0 202.5 -80t67.5 -203v-895h-205v799q0 41 -2 80t-15 69.5t-42 49t-82 18.5q-49 0 -83 -18.5t-53.5 -49t-28.5 -70.5t-9 -83v-795h-205z" />
<glyph unicode="o" horiz-adv-x="962" d="M111 377v399q0 195 84 298.5t286 103.5q106 0 177 -27t114 -78t61.5 -126t18.5 -171v-399q0 -195 -84 -298.5t-287 -103.5q-106 0 -177 27t-114 77t-61 125t-18 173zM315 360q0 -45 5.5 -84.5t22.5 -70.5t50 -49.5t88 -18.5t88 18.5t50.5 49.5t21.5 71.5t4 83.5v433 q0 43 -5 84t-21.5 71.5t-49 49t-88.5 18.5q-57 0 -90 -18.5t-50 -49t-21.5 -70.5t-4.5 -85v-433z" />
<glyph unicode="p" horiz-adv-x="966" d="M129 -428v1581h203v-49q0 -25 -10 -55l8 -2q47 63 101 97t134 34q92 0 149.5 -32t89.5 -86t42 -126t10 -152v-381q0 -78 -8 -153.5t-38 -136t-87 -98.5t-156 -38q-41 0 -73.5 4.5t-60 16.5t-51.5 32.5t-48 51.5l-8 -2q4 -53 7 -98.5t3 -98.5v-309h-207zM338 399 q0 -43 3 -90t18.5 -85t47 -62.5t87.5 -24.5q57 0 88.5 24.5t47 62.5t18.5 84t3 91v355q0 45 -3 91t-18.5 84t-47 62.5t-88.5 24.5q-55 0 -87 -24.5t-47.5 -62.5t-18.5 -85t-3 -90v-355z" />
<glyph unicode="q" horiz-adv-x="966" d="M106 401v381q0 80 10.5 152t42 126t89 86t151.5 32q82 0 134.5 -35t101.5 -96l8 2q-10 27 -10 51v53h201v-1581h-207v305q0 61 3 111.5t9 109.5l-10 2q-51 -63 -100.5 -94t-133.5 -31q-98 0 -155.5 38t-87 98.5t-38 136t-8.5 153.5zM311 399q0 -45 3 -91t18.5 -84 t47.5 -62.5t89 -24.5q55 0 87 24.5t47 62.5t18.5 85t3.5 90v355q0 43 -3.5 90t-18.5 85t-47 62.5t-87 24.5q-57 0 -89 -24.5t-47.5 -62.5t-18.5 -84t-3 -91v-355z" />
<glyph unicode="r" horiz-adv-x="630" d="M129 0v1153h193v-68q0 -35 -11 -79l8 -2q20 43 41 74.5t45.5 54t58.5 34t83 11.5q10 0 19 -1t18 -1q8 -2 18 -2v-183q-80 0 -132 -14t-83 -48t-42 -87.5t-11 -132.5v-709h-205z" />
<glyph unicode="s" horiz-adv-x="882" d="M86 322v59h193v-41q0 -39 4 -76t19 -64.5t47 -45t87 -17.5q72 0 110 45t38 117q0 43 -17.5 77t-47.5 61.5t-67 51.5l-79 50l-84 51q-76 47 -128 114.5t-52 178.5q0 76 25.5 131t70.5 92t105.5 54.5t131.5 17.5q324 0 324 -312v-61h-195v39q0 33 -4 64.5t-17 56t-40 39 t-70 14.5q-57 0 -93 -33t-36 -92q0 -37 14.5 -63.5t36 -48t49.5 -39.5l56 -33l90 -56q49 -31 91 -63.5t73 -74.5t49 -94t18 -120q0 -160 -93 -243t-263 -83q-98 0 -164.5 24t-106.5 68t-57.5 108.5t-17.5 146.5z" />
<glyph unicode="t" horiz-adv-x="620" d="M45 983v170h94q23 0 45 -6q-6 20 -6 45v258h205v-258q0 -25 -6 -45q20 6 45 6h147v-170h-147q-25 0 -45 6q6 -29 6 -53v-637q0 -66 17.5 -98.5t84.5 -32.5q16 0 33 1t27 3l24 4v-178q-27 -2 -49 -4q-23 -2 -45 -3t-39 -1q-76 0 -126 17.5t-78.5 52t-41 88t-12.5 124.5 v672q0 23 6 45q-23 -6 -45 -6h-94z" />
<glyph unicode="u" horiz-adv-x="976" d="M121 258v895h205v-799q0 -41 2 -79.5t15 -69.5t42 -49.5t82 -18.5q49 0 83 18.5t53.5 49.5t28.5 70.5t9 82.5v795h205v-1153h-199v47q0 16 3 28.5t7 26.5l-8 2q-98 -129 -258 -129q-127 0 -198.5 80t-71.5 203z" />
<glyph unicode="v" horiz-adv-x="849" d="M27 1153h211l94 -441q47 -218 84 -442h12q37 223 87 443l99 440h209l-301 -1153h-203z" />
<glyph unicode="w" horiz-adv-x="1312" d="M29 1153h204l71 -423q36 -210 63 -425h12q35 215 80 425l90 423h205l85 -415q42 -206 76 -416h13q31 211 69 416l80 415h205l-252 -1153h-207l-89 442q-44 219 -79 443h-12q-37 -223 -84 -443l-94 -442h-201z" />
<glyph unicode="x" horiz-adv-x="872" d="M12 0l312 596l-287 557h227l89 -200q44 -99 81 -203h8q35 104 78 203l86 200h225l-280 -557l305 -596h-233l-95 219q-47 109 -86 221h-8q-43 -113 -91 -221l-97 -219h-234z" />
<glyph unicode="y" horiz-adv-x="845" d="M27 1153h213l95 -426q48 -211 87 -428h12q35 217 80 428l92 426h213l-348 -1339q-18 -72 -44 -118t-63.5 -72.5t-90 -38t-123.5 -11.5h-25q-10 0 -21 -1h-6q-6 0 -12 1v176q4 -2 9 -1t9 1h11q55 0 91 16.5t52 73.5l57 197z" />
<glyph unicode="z" horiz-adv-x="829" d="M43 0v152l381 661l39 64l24 37q10 15 20.5 26.5t22.5 32.5q-37 -2 -79.5 -3t-79.5 -1h-256v184h647v-145l-377 -668l-46 -81l-48 -79q37 2 73.5 3t73.5 1h324v-184h-719z" />
<glyph unicode="{" horiz-adv-x="724" d="M117 508v133q80 29 99.5 84t19.5 133v371q0 27 2 61.5t7 68.5t14 65.5t26 56.5q37 55 106.5 77.5t132.5 22.5h105v-162q-113 0 -158 -42t-45 -154v-373q0 -104 -34 -168t-134 -104v-7q100 -41 134 -104.5t34 -167.5v-373q0 -57 10 -95t35 -60.5t63.5 -31.5t94.5 -9v-162 h-105q-63 0 -131.5 22.5t-107.5 77.5q-16 25 -25.5 56.5t-14.5 65.5t-7 67.5t-2 62.5v371q0 78 -19.5 133t-99.5 84z" />
<glyph unicode="|" horiz-adv-x="493" d="M174 -475v2056h145v-2056h-145z" />
<glyph unicode="}" horiz-adv-x="724" d="M96 -270q55 0 94 9t64 31.5t35 60.5t10 95v373q0 104 34 167.5t134 104.5v7q-100 41 -134 104t-34 168v373q0 113 -45 154.5t-158 41.5v162h105q63 0 132.5 -22.5t106.5 -77.5q16 -25 25.5 -56.5t14.5 -65.5t7 -69t2 -61v-371q0 -78 19.5 -133t99.5 -84v-133 q-80 -29 -99.5 -84t-19.5 -133v-371q0 -29 -2 -62.5t-7 -67.5t-14 -65.5t-26 -56.5q-39 -55 -107.5 -77.5t-131.5 -22.5h-105v162z" />
<glyph unicode="~" d="M74 528q39 53 80 95q35 35 78.5 65.5t86.5 30.5q55 0 104.5 -18.5t97.5 -40t94.5 -39t95.5 -17.5q35 0 69.5 18.5t63.5 41.5q33 25 63 59l72 -86q-41 -51 -84 -90q-37 -35 -83 -62.5t-89 -27.5q-41 0 -90 17.5t-101.5 39t-103.5 39.5t-94 18q-35 0 -66.5 -18t-56.5 -41 q-29 -27 -55 -59z" />
<glyph unicode="&#xa2;" horiz-adv-x="944" d="M127 584v356q0 86 9 160t38 130t82 94t143 50v180h160v-178q150 -16 216.5 -98t66.5 -223v-90h-199v57q0 37 -4 71.5t-19.5 62.5t-45 45.5t-80.5 17.5q-63 0 -97.5 -25t-48.5 -63.5t-15 -86t-1 -92.5v-346q0 -41 2 -88t16.5 -87t45 -65.5t87.5 -25.5t90 20.5t48.5 53 t18.5 74.5t3 85v80h201v-82q0 -178 -61.5 -274t-223.5 -115v-182h-160v182q-80 10 -133 43t-83.5 85t-43 121t-12.5 153z" />
<glyph unicode="&#xa3;" d="M72 193q0 86 56 141t142 55q31 0 58.5 -10t56.5 -23q-4 18 -5 35t-1 35q-2 70 -16.5 141.5t-32.5 137.5h-193v176h99q16 0 30.5 -1t30.5 -3q-23 86 -43.5 173t-20.5 175q0 174 93.5 271t269.5 97q100 0 166.5 -27.5t104.5 -77.5t53.5 -120t15.5 -156v-73h-211v63 q0 39 -3 77t-16.5 68.5t-41 50t-78.5 19.5q-78 0 -113 -52t-35 -124q0 -90 19.5 -182t42.5 -178h237v-176h-137q-29 0 -49 4l-16 4l31.5 -152t15.5 -155q0 -35 -4.5 -68t-10.5 -68q29 -25 68 -54.5t80 -29.5q23 0 36 14.5t21 36t10 47t2 50.5v51h207v-78q0 -66 -11 -124 t-40 -102t-77 -70.5t-122 -26.5q-78 0 -135 28.5t-112 81.5q-51 -47 -99.5 -75.5t-120.5 -28.5q-92 0 -147 55.5t-55 147.5zM217 190q0 -23 12.5 -40t44.5 -17q35 0 50.5 22.5t29.5 47.5q-10 10 -22 18q-10 8 -25.5 14.5t-32.5 6.5q-23 0 -40 -14.5t-17 -37.5z" />
<glyph unicode="&#xa5;" d="M29 1559h229l176 -441q35 -90 52.5 -156.5t23.5 -111.5q8 -53 6 -90h14q2 49 11 104q8 47 24.5 110.5t44.5 135.5l187 449h229l-299 -693h229v-151h-303l-24 -49v-121h307v-152h-307v-393h-211v393h-307v152h307v108l-31 62h-297v151h225z" />
<glyph unicode="&#xa8;" horiz-adv-x="1024" d="M238 1348v233h190v-233h-190zM596 1348v233h190v-233h-190z" />
<glyph unicode="&#xa9;" horiz-adv-x="1505" d="M0 791q0 168 48 316t143.5 259t236.5 175.5t326 64.5q180 0 320 -64.5t235.5 -175.5t145.5 -259.5t50 -315.5q0 -168 -48 -316.5t-142 -259.5t-235.5 -175.5t-325.5 -64.5t-325.5 63.5t-237 174.5t-143.5 259.5t-48 318.5zM123 791q0 -143 39 -270.5t116.5 -222.5 t195.5 -150.5t278 -55.5t278.5 55.5t196.5 150.5t115.5 222t37.5 271q0 143 -38.5 271t-117.5 223t-197 150.5t-275 55.5q-160 0 -278 -55.5t-195.5 -150.5t-116.5 -223t-39 -271zM467 653v285q0 76 9 140.5t39 111.5t87 73.5t154 26.5q150 0 216 -67.5t66 -192.5v-72h-157 v46q0 29 -3.5 57.5t-15.5 51t-36.5 35.5t-65.5 13q-51 0 -78 -19.5t-38 -50t-12 -68.5t-1 -75v-276q0 -33 2 -71t12 -69.5t35 -52t72 -20.5q45 0 71.5 16.5t38.5 43t15.5 59t3.5 67.5v64h159v-66q0 -80 -13 -138.5t-47 -97t-89 -58t-141 -19.5q-84 0 -138.5 22.5t-87 65.5 t-45 102t-12.5 133z" />
<glyph unicode="&#xab;" horiz-adv-x="933" d="M117 449v249l305 328v-285l-93 -85q-46 -44 -98 -78l25 -17q12 -8 23 -18l143 -133v-279zM526 459v235l308 328v-281l-144 -129q-20 -20 -41 -30q10 -8 20.5 -15.5t20.5 -17.5l144 -135v-285z" />
<glyph unicode="&#xad;" horiz-adv-x="626" d="M115 524v193h397v-193h-397z" />
<glyph unicode="&#xae;" horiz-adv-x="1505" d="M0 791q0 168 48 316t143.5 259t236.5 175.5t326 64.5q180 0 320 -64.5t235.5 -175.5t145.5 -259.5t50 -315.5q0 -168 -48 -316.5t-142 -259.5t-235.5 -175.5t-325.5 -64.5t-325.5 63.5t-237 174.5t-143.5 259.5t-48 318.5zM123 791q0 -143 39 -270.5t116.5 -222.5 t195.5 -150.5t278 -55.5t278.5 55.5t196.5 150.5t115.5 222t37.5 271q0 143 -38.5 271t-117.5 223t-197 150.5t-275 55.5q-160 0 -278 -55.5t-195.5 -150.5t-116.5 -223t-39 -271zM469 365v901h295q133 0 203.5 -56.5t70.5 -191.5q0 -66 -20.5 -124t-85.5 -87v-6 q31 -16 48 -34.5t25.5 -41.5t10.5 -49.5t4 -59.5q4 -63 11 -129.5t40 -121.5h-176q-25 43 -28 107.5t-8 124.5t-24.5 102t-80.5 42h-70q-33 0 -57 9q4 -16 5 -26.5t1 -27.5v-331h-164zM627 874q16 4 31.5 6.5t31.5 2.5h68q25 0 46 3t37.5 15t26 37t9.5 66q0 78 -32 98 t-79 20h-66q-41 0 -73 8q6 -23 6 -45v-165q0 -26 -6 -46z" />
<glyph unicode="&#xaf;" horiz-adv-x="1024" d="M262 1415v146h500v-146h-500z" />
<glyph unicode="&#xb4;" horiz-adv-x="1024" d="M348 1323l101 287h227l-166 -287h-162z" />
<glyph unicode="&#xb8;" horiz-adv-x="1024" d="M332 -420l18 105q14 -4 27 -7q20 -6 47 -6q16 0 35.5 3t36 11.5t28 23t11.5 36.5q0 84 -99 84q-10 0 -25.5 -1t-25.5 -3l41 174h119l-23 -88h19q74 0 112.5 -45t38.5 -111q0 -86 -59.5 -140t-159.5 -54q-35 0 -60.5 2t-43.5 6q-23 4 -37 10z" />
<glyph unicode="&#xbb;" horiz-adv-x="933" d="M111 129v285l143 135q10 10 20.5 17t20.5 16q-12 6 -22.5 13t-20.5 17l-141 129v281l305 -328v-235zM516 131v279l143 133q10 10 23 18l25 17q-51 35 -98 78l-93 85v285l305 -328v-249z" />
<glyph unicode="&#xc6;" horiz-adv-x="1589" d="M14 0l656 1581h827v-186h-485q-20 0 -41 6q6 -23 6 -41v-418q0 -20 -6 -41q20 6 41 6h452v-182h-452q-20 0 -41 6q6 -18 6 -39v-471q0 -20 -6 -41q20 6 41 6h485v-186h-731v455q0 18 6 41q-29 -6 -53 -7h-293l-186 -489h-226zM492 670q29 2 54 3t54 1h119q16 0 26.5 -1 t26.5 -5q-4 14 -5 24t-1 27v358q0 74 2 148.5t6 148.5l-12 2l-64 -181l-67 -179l-67 -174q-31 -86 -72 -172z" />
<glyph unicode="&#xe6;" horiz-adv-x="1429" d="M84 266v60q0 86 38 152.5t103.5 111.5t153.5 69.5t190 28.5l35 2q-4 8 -6 17q-4 20 -4 49v125q0 66 -36 100.5t-107 34.5q-92 0 -119 -43t-27 -115v-47h-205v47q0 174 94.5 247t270.5 73q72 0 119 -17.5t75 -38.5q33 -25 52 -55q18 31 53 55q29 20 76 38t118 18 q104 0 176 -26t116 -75t63.5 -119.5t19.5 -158.5v-273h-487q-16 0 -27.5 1t-25.5 5q4 -10 4 -23v-30v-168q0 -76 41 -125t120 -49q55 0 88 17.5t51.5 47t24.5 66.5t6 76v47h205v-49q0 -170 -88 -268.5t-287 -98.5q-119 0 -181 34t-101 95q-37 -39 -117 -77.5t-190 -38.5 q-59 0 -111.5 16t-91.5 50t-60.5 86t-21.5 126zM291 279q0 -59 38 -89t103 -30q39 0 68.5 11t50.5 26q23 16 41 39v229q0 16 1 26.5t3 18.5t6 14l-41 -2q-70 -4 -121 -22.5t-83.5 -46t-49 -61.5t-16.5 -66v-47zM786 692q12 0 23 2q10 2 19.5 3t15.5 1h241q23 0 48 -6 q-6 31 -7 60v49q0 43 -5 82t-22.5 68.5t-51 47t-89.5 17.5q-51 0 -82.5 -16.5t-49 -46t-23.5 -68.5t-6 -84v-53q0 -10 -2 -19.5t-4 -17.5q-3 -9 -5 -19z" />
<glyph unicode="&#x2c6;" horiz-adv-x="1024" d="M205 1317l174 282h270l172 -282h-190l-65 93l-62 95q-27 -51 -58 -96l-63 -92h-178z" />
<glyph unicode="&#x2d8;" horiz-adv-x="1024" d="M221 1597h135q12 -59 53.5 -86.5t98.5 -27.5q59 0 103 26.5t55 87.5h137q-10 -129 -83 -196.5t-202 -67.5q-135 0 -210 64.5t-87 199.5z" />
<glyph unicode="&#x2da;" horiz-adv-x="1024" d="M297 1470q0 90 62.5 145.5t152.5 55.5q92 0 153.5 -55t61.5 -146q0 -90 -63.5 -144t-151.5 -54q-90 0 -152.5 55t-62.5 143zM420 1470q0 -41 26.5 -66.5t67.5 -25.5t66.5 27t25.5 65h2q0 39 -27.5 65t-66.5 26q-41 0 -67.5 -26t-26.5 -65z" />
<glyph unicode="&#x2dc;" horiz-adv-x="1024" d="M182 1468l43 50q23 25 47.5 45t54 32.5t66.5 12.5q39 0 71 -11.5t46 -17.5l53 -26q29 -13 58 -13q35 0 58 17.5t58 56.5l105 -82q-47 -61 -94.5 -108.5t-116.5 -47.5v-2q-23 0 -51.5 6t-71.5 25q-29 10 -55.5 22.5t-55.5 12.5q-33 0 -54 -15.5t-54 -48.5z" />
<glyph unicode="&#x2dd;" horiz-adv-x="1024" d="M186 1323l101 287h227l-166 -287h-162zM510 1323l100 287h228l-166 -287h-162z" />
<glyph unicode="&#x398;" horiz-adv-x="1146" d="M129 551v479q0 53 1 109.5t8 112t25.5 107.5t53.5 95q63 82 159.5 117t196.5 35t196.5 -35t160.5 -117q35 -43 53 -95t25.5 -107.5t8.5 -112t1 -109.5v-479q0 -53 -1 -109.5t-8.5 -112t-25.5 -107.5t-53 -95q-63 -82 -159.5 -117t-197.5 -35q-100 0 -196 35t-160 117 q-35 43 -53.5 95t-25.5 107.5t-8 112t-1 109.5zM340 557q0 -63 4 -134t26.5 -130.5t69.5 -98t133 -38.5t133.5 38.5t70 98t26.5 130.5t4 134v471q0 63 -4 134t-26.5 129.5t-70 96t-133.5 37.5t-133 -37.5t-69.5 -96t-26.5 -129t-4 -134.5v-471zM397 725v182h348v-182h-348z " />
<glyph unicode="&#x3a8;" horiz-adv-x="1310" d="M129 758v823h211v-817q0 -59 3 -118.5t21.5 -109t57.5 -84t110 -42.5q6 0 15 -4l8 -5l-4 9q-2 4 -2 18v1153h211v-1153q0 -10 -4 -18q-2 -6 -2 -9l8 5q8 4 12 4q72 8 112 41.5t58.5 83t22.5 108.5t4 121v817h211v-823q0 -53 -1 -103.5t-8.5 -97.5t-26 -93t-52.5 -89 q-57 -72 -140.5 -108t-173.5 -42q-10 0 -16 2q-6 0 -10 2q0 -4 2 -8q4 -12 4 -18v-285h-211v285q0 12 2 18l4 8q-6 -2 -12 -2q-4 -2 -9 -2h-10q-88 8 -170 43t-137 107q-35 43 -53.5 89t-25.5 93t-8 97.5t-1 103.5z" />
<glyph unicode="&#x3b8;" horiz-adv-x="974" d="M117 377v831q0 195 84 298.5t286 103.5q106 0 177 -27t114 -78t61.5 -125.5t18.5 -171.5v-831q0 -195 -84 -298.5t-287 -103.5q-106 0 -176.5 27t-113.5 77t-61.5 125t-18.5 173zM322 360q0 -45 5 -84.5t22.5 -70.5t50 -49.5t87.5 -18.5t88 18.5t50.5 49.5t21.5 71.5 t4 83.5v365h-329v-365zM322 907h329v318q0 43 -5 84t-21.5 71.5t-49 49t-88.5 18.5q-57 0 -89.5 -18.5t-50 -49t-21.5 -70.5t-4 -85v-318z" />
<glyph unicode="&#x3c8;" horiz-adv-x="1314" d="M117 573v580h205v-657q0 -70 -1.5 -129.5t15 -102.5t59.5 -67.5t133 -24.5q10 0 23 -4q6 -2 12 -2q-2 4 -4 10t-2 31v1374h203v-1374q0 -10 -4 -27q-2 -8 -2 -14l34 6q82 0 124 24.5t60.5 67.5t19.5 102.5t1 129.5v657h205v-580q0 -139 -5 -245.5t-43 -181t-121 -114.5 t-236 -44q-14 0 -23 2l-16 4q0 -4 2 -12q4 -16 4 -25v-385h-203v385q0 20 2 27q2 6 4 10l-12 -4q-4 -2 -9 -2h-10q-158 2 -242.5 42t-122.5 113.5t-44 182t-6 247.5z" />
<glyph unicode="&#x400;" horiz-adv-x="976" d="M268 2015h227l101 -287h-162zM145 0v1581h740v-186h-494q-18 0 -41 6q6 -20 6 -41v-418q0 -18 -6 -41q23 6 41 6h457v-182h-457q-18 0 -41 6q6 -20 6 -41v-469q0 -18 -6 -41q23 6 41 6h494v-186h-740z" />
<glyph unicode="&#x401;" horiz-adv-x="976" d="M145 0v1581h740v-186h-494q-18 0 -41 6q6 -20 6 -41v-418q0 -18 -6 -41q23 6 41 6h457v-182h-457q-18 0 -41 6q6 -20 6 -41v-469q0 -18 -6 -41q23 6 41 6h494v-186h-740zM213 1745v233h190v-233h-190zM573 1745v233h191v-233h-191z" />
<glyph unicode="&#x402;" horiz-adv-x="1333" d="M37 1395v186h864v-186h-313q-18 0 -41 6q6 -20 6 -41v-418q37 12 80 21q37 8 88 13t113 5q137 0 219 -33t126 -92t57 -141t13 -178v-142q0 -78 -8 -151.5t-39 -130t-92 -91t-166 -34.5q-29 0 -52.5 1t-39.5 3q-20 2 -35 4v178q14 0 31 -2q14 -2 32.5 -3t34.5 -1 q45 0 70 15.5t37 43t14 66.5t2 86v123v88q0 51 -18.5 98t-64.5 80t-138 33q-57 0 -105 -6.5t-83 -14.5q-41 -8 -76 -20v-760h-213v1360q0 20 6 41q-20 -6 -41 -6h-268z" />
<glyph unicode="&#x403;" horiz-adv-x="921" d="M147 0v1581h740v-186h-494q-18 0 -41 6q6 -20 6 -41v-1360h-211zM393 1718l101 287h227l-166 -287h-162z" />
<glyph unicode="&#x404;" horiz-adv-x="1050" d="M123 549v514q0 111 13.5 209t57.5 172t128 118t225 44q119 0 197.5 -33t127 -91.5t69 -137t20.5 -173.5v-88h-213v82q0 47 -7.5 93.5t-29 83t-60.5 60t-102 23.5q-82 0 -126 -35.5t-63.5 -91t-22.5 -121t-3 -124.5v-111q0 -18 -6 -41q23 6 41 6h374v-182h-374 q-18 0 -41 6q6 -20 6 -41v-303q0 -102 47 -166.5t160 -64.5q61 0 101 20.5t63.5 55t33 79.5t9.5 95v81h213v-88q0 -94 -21.5 -173t-70 -134t-128 -86t-196.5 -31q-154 0 -239 45.5t-126 123t-49 182t-8 223.5z" />
<glyph unicode="&#x405;" horiz-adv-x="1058" d="M96 412v73h215v-71q0 -51 11.5 -98.5t36 -82t65.5 -56t102 -21.5q111 0 167.5 56t56.5 191q0 66 -20.5 113t-70.5 92q-31 29 -64 52l-69 47l-151 100q-53 35 -98.5 75t-78 88t-51 109.5t-18.5 139.5q0 92 30.5 164.5t85 121.5t129.5 75t165 26q203 0 303 -107.5 t100 -300.5v-68h-213v68q0 45 -8 86t-28.5 73t-57.5 50t-96 18q-92 0 -145.5 -54t-53.5 -146q0 -55 19.5 -98.5t52 -78t72.5 -63.5t83 -55l90 -58q68 -43 124.5 -86t96.5 -95t61.5 -118.5t21.5 -158.5q0 -100 -25 -181t-77 -138.5t-134 -88.5t-199 -31q-113 0 -193.5 31 t-133 88.5t-78 137.5t-25.5 180z" />
<glyph unicode="&#x406;" horiz-adv-x="509" d="M150 0v1581h210v-1581h-210z" />
<glyph unicode="&#x407;" horiz-adv-x="505" d="M-20 1745v233h190v-233h-190zM145 0v1581h211v-1581h-211zM336 1745v233h190v-233h-190z" />
<glyph unicode="&#x408;" horiz-adv-x="937" d="M59 371v135h213v-107q0 -45 2 -88t16.5 -77.5t48.5 -56t97 -21.5q61 0 94 23.5t47.5 60t16.5 83t2 91.5v1167h211v-1167q0 -96 -14.5 -177t-55.5 -139.5t-112.5 -90.5t-186.5 -32q-117 0 -190.5 31t-115.5 84t-57.5 126t-15.5 155z" />
<glyph unicode="&#x409;" horiz-adv-x="1628" d="M-10 -10v184h33q39 0 62.5 31t36.5 74t18 90t5 77l21 1135h764v-627q0 -16 -1 -27.5t-5 -25.5q14 4 25.5 5t27.5 1h178q113 0 187.5 -35.5t119.5 -96t63.5 -142.5t18.5 -174v-25q0 -106 -19.5 -187t-66.5 -136.5t-124 -83t-193 -27.5h-424v1366q0 10 4 23q2 6 4 10 q-4 0 -10 -2t-23 -2h-284q-12 0 -25 4q-6 2 -12 2q2 -4 4 -12q4 -16 4 -23l-21 -868q-2 -109 -13 -202t-45 -160.5t-95.5 -106.5t-165.5 -39h-49zM920 178q16 4 26 6t31 2h147q66 0 106 18.5t62.5 51.5t30.5 79t8 101v62q0 51 -9 93t-35.5 71.5t-72 46t-116.5 16.5h-121 q-35 0 -57 6q4 -16 5 -26.5t1 -26.5v-447q0 -16 -1 -26.5t-5 -26.5z" />
<glyph unicode="&#x40a;" horiz-adv-x="1755" d="M150 0v1581h210v-639q0 -18 -6 -41q23 6 41 6h416q20 0 41 -6q-6 23 -6 41v639h211v-627q0 -16 -1 -27.5t-5 -25.5q14 4 25 5t28 1h178q113 0 187.5 -36.5t119.5 -98t63.5 -141.5t18.5 -168v-31q0 -106 -19.5 -187t-66.5 -135.5t-124 -82t-193 -27.5h-422v690q0 20 6 41 q-20 -6 -41 -6h-416q-18 0 -41 6q6 -20 6 -41v-690h-210zM1049 178q16 4 26 6t31 2h147q66 0 106 18.5t62.5 51.5t30.5 79t8 101v62q0 51 -9 93t-35.5 71.5t-72 46t-116.5 16.5h-121q-35 0 -57 6q4 -16 5 -26.5t1 -26.5v-447q0 -16 -1 -26.5t-5 -26.5z" />
<glyph unicode="&#x40b;" horiz-adv-x="1333" d="M37 1395v186h864v-186h-313q-18 0 -41 6q6 -20 6 -41v-418q37 12 80 21q37 8 88 13t113 5q137 0 219 -33t126 -92t57 -141t13 -178v-537h-211v502v88q0 51 -18.5 98t-64.5 80t-138 33q-57 0 -105 -6.5t-83 -14.5q-41 -8 -76 -20v-760h-213v1360q0 20 6 41q-20 -6 -41 -6 h-268z" />
<glyph unicode="&#x40c;" horiz-adv-x="1142" d="M150 0v1581h208v-653h226q109 0 152.5 52t49.5 183l11 215q4 76 10 116t12 60q8 23 17 27h204q-23 -59 -24.5 -109.5t-5.5 -111.5l-9 -217q-2 -39 -6 -90.5t-21.5 -97.5t-54 -79.5t-104.5 -37.5v-11q68 -16 110 -47.5t64.5 -76t29.5 -99.5t9 -119l6 -237q2 -53 11.5 -119 t31.5 -129h-213q-10 25 -21.5 71t-15.5 111l-10 256q-2 59 -9 114.5t-31.5 98.5t-69.5 68.5t-125 25.5h-224v-745h-208zM471 1718l100 287h228l-166 -287h-162z" />
<glyph unicode="&#x40d;" horiz-adv-x="1245" d="M377 2015h227l101 -287h-162zM150 0v1581h210v-868q0 -92 -2 -201t-6 -201l10 -4q10 49 27 106l34 112q17 56 36 108l33 88l344 860h260v-1581h-211v930q0 84 2 186.5t6 186.5l-10 2q-14 -70 -28.5 -125.5t-30 -104.5t-31.5 -94l-35 -92l-348 -889h-260z" />
<glyph unicode="&#x40e;" horiz-adv-x="888" d="M0 1581h225l142 -481q23 -70 37 -143l28 -132q14 -70 25 -135h10q14 74 33 154l33.5 149.5l35.5 159.5l103 428h229l-346 -1235q-20 -72 -44 -138.5t-60.5 -118.5t-92 -83t-139.5 -31t-135 11q-27 6 -49 12l35 178q12 -4 30 -8q16 -4 37 -6t45 -2q66 0 95.5 27.5 t46.5 86.5l18 64q8 25 13 48.5t10 33.5zM166 1985h176q0 -27 4 -53.5t15.5 -47t33 -33t58.5 -12.5q39 0 61.5 12.5t34.5 32t16 46t4 55.5h176q-10 -129 -82.5 -197t-201.5 -68q-272 1 -295 265z" />
<glyph unicode="&#x40f;" horiz-adv-x="1210" d="M150 0v1581h210v-1360q0 -18 -6 -41q23 6 41 6h416q20 0 41 -6q-6 23 -6 41v1360h211v-1581h-318q-16 0 -28 4q-6 2 -11 2q2 -2 5 -8q2 -6 2 -31v-213h-209v213q0 16 4 29q2 6 2 10q-2 0 -8 -2q-12 -4 -29 -4h-317z" />
<glyph unicode="&#x410;" horiz-adv-x="1026" d="M23 0l362 1581h283l333 -1581h-225l-92 489h-344l-96 -489h-221zM375 668l38.5 4t39.5 2h129q18 0 35 -2l34 -4q-25 82 -38 166t-29 167q-8 43 -16.5 95.5t-15.5 106.5l-13.5 106.5t-12.5 95.5h-10q-6 -43 -14 -95l-17 -107l-16 -106q-8 -52 -18 -96l-33 -168 q-16 -87 -43 -165z" />
<glyph unicode="&#x411;" horiz-adv-x="1114" d="M150 0v1581h780v-186h-522q-16 0 -27.5 1t-26.5 5q4 -14 5 -25.5t1 -27.5v-394q0 -16 -1 -27.5t-5 -25.5q14 4 25.5 5t28.5 1h223q186 0 288.5 -101t102.5 -308v-56q0 -113 -21.5 -195.5t-71.5 -138t-131 -82t-200 -26.5h-448zM354 180q14 4 25.5 5t28.5 1h157 q57 0 102.5 9.5t77 37t48 80t16.5 138.5v28q0 47 -9 91t-30.5 78t-59.5 55.5t-94 21.5h-208q-16 0 -27.5 1t-26.5 5q4 -14 5 -25.5t1 -27.5v-445q0 -16 -1 -27.5t-5 -25.5z" />
<glyph unicode="&#x412;" horiz-adv-x="1134" d="M150 0v1581h440q209 0 298 -104.5t89 -307.5v-49q0 -98 -27.5 -155.5t-62.5 -85.5q-39 -35 -92 -45q61 -14 112 -58q43 -37 78 -108.5t35 -198.5v-55q0 -205 -98.5 -309.5t-323.5 -104.5h-448zM354 180q14 4 25.5 5t28.5 1h157q53 0 98.5 8.5t78 33t50 69.5t17.5 119v35 q0 49 -7 98t-28.5 88t-58.5 63.5t-99 24.5h-208q-16 0 -27.5 1t-26.5 5q4 -14 5 -25.5t1 -27.5v-445q0 -16 -1 -27.5t-5 -25.5zM354 901q14 4 25.5 5t28.5 1h163q47 0 83 11.5t60.5 38t38 71.5t13.5 113v28q0 80 -14.5 125t-43 67.5t-70.5 28t-95 5.5h-135q-16 0 -27.5 1 t-26.5 5q4 -14 5 -25.5t1 -27.5v-394q0 -16 -1 -27.5t-5 -25.5z" />
<glyph unicode="&#x413;" horiz-adv-x="923" d="M150 0v1581h739v-186h-494q-18 0 -41 6q6 -20 6 -41v-1360h-210z" />
<glyph unicode="&#x414;" horiz-adv-x="1161" d="M-47 186h96q35 72 62 170q23 84 41 205t18 277v743h819v-1364v-13q0 -7 -2 -11l-4 -13q4 2 12 4t25 2h102v-432h-211v221q0 10 4 23q2 6 3 8q-4 0 -11 -2q-12 -4 -22 -4h-688q-10 0 -23 4q-6 2 -10 2q2 -2 4 -8t2 -23v-221h-217v432zM221 166l2 -2q23 10 41.5 16t71.5 6 h416q16 0 22 -2l12 -4q0 4 -2 13q-4 16 -4 24v1149q0 12 4 25q2 6 2 10q-4 0 -10 -2q-12 -4 -24 -4h-344q-8 0 -21 4q-6 2 -12 2q2 -4 4 -10t2 -23v-506q0 -74 -4 -172t-20.5 -197.5t-48.5 -186.5t-87 -140z" />
<glyph unicode="&#x415;" horiz-adv-x="976" d="M145 0v1581h740v-186h-494q-18 0 -41 6q6 -20 6 -41v-418q0 -18 -6 -41q23 6 41 6h457v-182h-457q-18 0 -41 6q6 -20 6 -41v-469q0 -18 -6 -41q23 6 41 6h494v-186h-740z" />
<glyph unicode="&#x416;" horiz-adv-x="1523" d="M66 0q23 63 31.5 129t11.5 119l6 237q2 63 9 121t29.5 105t64.5 80.5t110 50.5v10q-68 4 -105 36t-54 75t-21.5 92t-6.5 88l-8 196q-4 61 -7 122t-26 120h205q8 -14 17 -45q6 -27 13 -73t11 -122l10 -184q8 -131 57.5 -180t157.5 -49h74v653h2h209h2v-653h92q55 0 91 11 t57.5 36.5t32 70t14.5 111.5l12 184q4 76 13.5 122t19.5 73q10 31 22 45h211q-23 -59 -35 -119.5t-16 -122.5l-8 -196q-2 -39 -6 -88t-22.5 -92t-55.5 -75t-104 -36v-10q68 -16 112.5 -50t71 -80t38 -103.5t13.5 -123.5l6 -237q2 -53 10.5 -119t30.5 -129h-215 q-10 25 -20.5 70t-14.5 112l-10 277q-2 59 -12 110.5t-38 91t-77 62t-129 22.5h-84v-745h-2h-209h-2v745h-63q-80 0 -128 -22.5t-76 -62t-39 -91t-13 -110.5l-13 -277q-4 -66 -14 -111.5t-20 -70.5h-213z" />
<glyph unicode="&#x417;" d="M80 418v86h211v-66q0 -51 8 -101t31.5 -89t66.5 -63.5t111 -24.5q78 0 124 26.5t69.5 70.5t30.5 100.5t7 113.5v61q0 70 -24.5 112t-64.5 64.5t-89 29.5t-100 7h-113v183h113q55 0 104 7t86 30.5t58.5 66.5t21.5 117v92q0 94 -59.5 139t-147.5 45q-61 0 -102 -20.5 t-64.5 -54t-33 -77.5t-9.5 -93v-66h-209v66q0 201 99.5 313.5t320.5 112.5q92 0 168 -21.5t131.5 -64.5t85 -108.5t29.5 -154.5v-83q0 -117 -29.5 -182.5t-66.5 -98.5q-43 -37 -99 -47v-6q57 -14 103 -54q39 -35 70.5 -96t31.5 -168v-110q0 -100 -23.5 -181t-75.5 -137.5 t-135 -87.5t-200 -31q-233 0 -334.5 117t-101.5 326z" />
<glyph unicode="&#x418;" horiz-adv-x="1245" d="M150 0v1581h210v-868q0 -92 -2 -201t-6 -201l10 -4q10 49 27 106l34 112q17 56 36 108l33 88l344 860h260v-1581h-211v930q0 84 2 186.5t6 186.5l-10 2q-14 -70 -28.5 -125.5t-30 -104.5t-31.5 -94l-35 -92l-348 -889h-260z" />
<glyph unicode="&#x419;" horiz-adv-x="1245" d="M150 0v1581h210v-868q0 -92 -2 -201t-6 -201l10 -4q10 49 27 106l34 112q17 56 36 108l33 88l344 860h260v-1581h-211v930q0 84 2 186.5t6 186.5l-10 2q-14 -70 -28.5 -125.5t-30 -104.5t-31.5 -94l-35 -92l-348 -889h-260zM332 1985h176q0 -27 4 -53.5t15.5 -47t33 -33 t57.5 -12.5q39 0 61.5 12.5t35 32t16.5 46t4 55.5h176q-10 -129 -82.5 -197t-201.5 -68q-272 1 -295 265z" />
<glyph unicode="&#x41a;" horiz-adv-x="1142" d="M150 0v1581h208v-653h226q109 0 152.5 52t49.5 183l11 215q4 76 10 116t12 60q8 23 17 27h204q-23 -59 -24.5 -109.5t-5.5 -111.5l-9 -217q-2 -39 -6 -90.5t-21.5 -97.5t-54 -79.5t-104.5 -37.5v-11q68 -16 110 -47.5t64.5 -76t29.5 -99.5t9 -119l6 -237q2 -53 11.5 -119 t31.5 -129h-213q-10 25 -21.5 71t-15.5 111l-10 256q-2 59 -9 114.5t-31.5 98.5t-69.5 68.5t-125 25.5h-224v-745h-208z" />
<glyph unicode="&#x41b;" horiz-adv-x="1116" d="M-10 -10v184h33q39 0 62.5 31t36.5 74t18 90t5 77l21 1135h801v-1581h-209v1366q0 10 4 23q2 6 4 10q-4 0 -10 -2t-23 -2h-325q-12 0 -25 4q-6 2 -12 2q2 -4 4 -12q4 -16 4 -23l-21 -868q-2 -109 -13 -202t-45 -160.5t-96.5 -106.5t-164.5 -39h-49z" />
<glyph unicode="&#x41c;" horiz-adv-x="1646" d="M147 0v1581h324l268 -1008l44 -171q22 -85 40 -173h11q18 86 38 172l43 172l259 1008h323v-1581h-199v946q0 92 2.5 183.5t6.5 183.5l-13 2q-23 -106 -49 -212l-55 -212l-236 -891h-252l-245 893l-56 210l-51 212l-12 -2q4 -86 6 -167t2 -167v-979h-199z" />
<glyph unicode="&#x41d;" horiz-adv-x="1206" d="M150 0v1581h210v-639q0 -18 -6 -41q23 6 41 6h416q20 0 41 -6q-6 23 -6 41v639h211v-1581h-211v690q0 20 6 41q-20 -6 -41 -6h-416q-18 0 -41 6q6 -20 6 -41v-690h-210z" />
<glyph unicode="&#x41e;" horiz-adv-x="1134" d="M123 551v479q0 121 15.5 225.5t63.5 182.5t135 123t230 45t230.5 -45t135.5 -123t63.5 -182.5t15.5 -225.5v-479q0 -121 -15.5 -225.5t-63.5 -182t-135 -123t-231 -45.5q-143 0 -230 45.5t-135 123t-63.5 182t-15.5 225.5zM334 537q0 -63 4 -131t26.5 -123.5t69.5 -91 t133 -35.5t133.5 35.5t70 91t26.5 123t4 131.5v512q0 63 -4 129.5t-26.5 122t-70 90t-133.5 34.5t-133 -34.5t-69.5 -90t-26.5 -122t-4 -129.5v-512z" />
<glyph unicode="&#x41f;" horiz-adv-x="1206" d="M150 0v1581h907v-1581h-211v1360q0 20 6 41q-20 -6 -41 -6h-416q-18 0 -41 6q6 -20 6 -41v-1360h-210z" />
<glyph unicode="&#x420;" horiz-adv-x="1060" d="M150 0v1581h419q117 0 195 -29.5t125 -86t67.5 -139.5t20.5 -189v-37q0 -92 -20.5 -170t-68.5 -134.5t-125 -89t-188 -32.5h-165q-16 0 -27.5 1t-26.5 5q4 -14 5 -25.5t1 -27.5v-627h-212zM354 850q23 6 58 6h120q68 0 113 15.5t71.5 44t38 68.5t11.5 89v76q0 55 -8 101 t-30.5 78t-62.5 49.5t-106 17.5h-147q-20 0 -30.5 2t-27.5 6q4 -16 5 -26.5t1 -26.5v-447q0 -16 -1 -26.5t-5 -26.5z" />
<glyph unicode="&#x421;" horiz-adv-x="1050" d="M123 549v514q0 111 13.5 209t57.5 172t128 118t225 44q119 0 197.5 -33t127 -91.5t69 -137t20.5 -173.5v-88h-213v82q0 47 -7.5 93.5t-29 83t-60.5 60t-102 23.5q-82 0 -126 -35.5t-63.5 -91t-22.5 -121t-3 -124.5v-666q0 -102 47 -166.5t160 -64.5q61 0 101 20.5 t63.5 55t33 79.5t9.5 95v81h213v-88q0 -94 -21.5 -173t-70 -134t-128 -86t-196.5 -31q-154 0 -239 45.5t-126 123t-49 182t-8 223.5z" />
<glyph unicode="&#x422;" horiz-adv-x="901" d="M37 1395v186h823v-186h-272q-18 0 -41 6q6 -20 6 -41v-1360h-211v1360q0 20 6 41q-20 -6 -41 -6h-270z" />
<glyph unicode="&#x423;" horiz-adv-x="942" d="M-10 1581h225l162 -481q31 -92 48 -168l28 -129q10 -63 14 -113h10q10 59 25 133q12 63 30.5 147.5t47.5 182.5l122 428h230l-346 -1235q-20 -72 -44 -138.5t-61 -118.5t-92 -83t-139 -31q-43 0 -80 3.5t-66 7.5q-33 6 -59 12l35 178q12 -4 31 -8q16 -4 36.5 -6t45.5 -2 q66 0 98.5 40t54.5 117l12 41l9 34q4 17 8 28z" />
<glyph unicode="&#x424;" horiz-adv-x="1298" d="M123 676v231q0 53 1 109.5t8 112t25.5 107.5t53.5 95q59 78 148.5 113t183.5 39v200h211v-200q96 -4 185 -39t148 -113q35 -43 53.5 -95t26 -107.5t8.5 -111.5t1 -110v-231q0 -53 -1 -109.5t-8.5 -112t-26 -107.5t-53.5 -95q-59 -78 -148 -113t-185 -39v-223h-211v223 q-94 4 -183.5 39t-148.5 113q-35 43 -53.5 95t-25.5 107.5t-8 112t-1 109.5zM334 682q0 -61 4 -129t23.5 -125t62.5 -97t119 -46v1018q-76 -6 -119 -46t-62.5 -97.5t-23.5 -125t-4 -129.5v-223zM754 285q78 6 121 45t62 96t23.5 126t4.5 130v223q0 61 -4.5 129t-23.5 126.5 t-62.5 97t-120.5 45.5v-1018z" />
<glyph unicode="&#x425;" d="M10 0l383 834l-356 747h239l126 -294q62 -146 118 -298h6q55 152 118 298l124 294h238l-359 -747l385 -834h-237l-142 322q-70 160 -133 325h-6q-61 -166 -132 -325l-142 -322h-230z" />
<glyph unicode="&#x426;" horiz-adv-x="1210" d="M150 0v1581h210v-1360q0 -18 -6 -41q23 6 41 6h416q20 0 41 -6q-6 23 -6 41v1360h211v-1356q0 -27 -2 -35t-4 -10q2 2 10 4t35 2h94v-432h-211v209q0 14 4 31q2 8 2 12q-4 0 -12 -2q-16 -4 -31 -4h-792z" />
<glyph unicode="&#x427;" horiz-adv-x="1142" d="M84 1130v451h211v-416v-90q0 -53 18.5 -102t64.5 -84t138 -35q72 0 116 3t70.5 8t43 11.5t34.5 10.5v694h213v-1581h-213v629q0 16 2 31.5t4 25.5l5 25q-72 -29 -137.5 -36t-153.5 -7q-137 0 -219 35.5t-126 98t-57.5 147.5t-13.5 181z" />
<glyph unicode="&#x428;" horiz-adv-x="1902" d="M150 0v1581h210v-1360q0 -18 -6 -41q23 6 41 6h416q20 0 41 -6q-6 23 -6 41v1360h211v-1360q0 -18 -6 -41q23 6 41 6h415q20 0 41 -6q-6 23 -6 41v1360h211v-1581h-1603z" />
<glyph unicode="&#x429;" horiz-adv-x="1906" d="M150 0v1581h210v-1360q0 -18 -6 -41q23 6 41 6h416q20 0 41 -6q-6 23 -6 41v1360h211v-1360q0 -18 -6 -41q23 6 41 6h415q25 0 31 -2t10 -4q0 4 -2 10q-4 12 -4 25v1366h211v-1366q0 -20 -2 -27q-2 -6 -4 -8q4 2 10 4t27 2h102v-432h-209v219q0 12 4 25q2 6 2 8 q-4 0 -10 -2q-12 -4 -24 -4h-1499z" />
<glyph unicode="&#x42a;" horiz-adv-x="1150" d="M0 1395v186h453v-627q0 -16 -1 -27.5t-6 -25.5q14 4 25.5 5t28.5 1h178q113 0 187.5 -38t119.5 -99t63.5 -140t18.5 -161v-35q0 -106 -19.5 -187t-66.5 -136.5t-124 -83t-193 -27.5h-424v1360q0 10 2 20.5t6 20.5q-20 -6 -41 -6h-207zM444 178q16 4 26.5 6t31.5 2h147 q66 0 106 18.5t62.5 51.5t30.5 79t8 101v60q0 51 -9 93t-36 72.5t-72 47t-116 16.5h-121q-35 0 -58 6q4 -16 5.5 -26.5t1.5 -26.5v-447q0 -16 -1.5 -26.5t-5.5 -26.5z" />
<glyph unicode="&#x42b;" horiz-adv-x="1558" d="M150 0v1581h212v-627q0 -16 -1 -27.5t-5 -25.5q14 4 25.5 5t28.5 1h178q113 0 187.5 -36.5t119.5 -98t63.5 -141.5t18.5 -168v-29q0 -106 -19.5 -187t-66.5 -136.5t-124 -83t-194 -27.5h-423zM354 178q16 4 26.5 6t31.5 2h147q66 0 106 18.5t62.5 51.5t30.5 79t8 101v62 q0 51 -9 93t-36 71.5t-72 46t-117 16.5h-120q-35 0 -58 6q4 -16 5 -26.5t1 -26.5v-447q0 -16 -1 -26.5t-5 -26.5zM1198 0v1581h211v-1581h-211z" />
<glyph unicode="&#x42c;" horiz-adv-x="1060" d="M150 0v1581h212v-627q0 -16 -1 -27.5t-5 -25.5q14 4 25.5 5t28.5 1h178q113 0 187.5 -36.5t119.5 -98t63.5 -141.5t18.5 -168v-29q0 -106 -19.5 -187t-66.5 -136.5t-124 -83t-194 -27.5h-423zM354 178q16 4 26.5 6t31.5 2h147q66 0 106 18.5t62.5 51.5t30.5 79t8 101v62 q0 51 -9 93t-36 71.5t-72 46t-117 16.5h-120q-35 0 -58 6q4 -16 5 -26.5t1 -26.5v-447q0 -16 -1 -26.5t-5 -26.5z" />
<glyph unicode="&#x42d;" horiz-adv-x="1050" d="M90 399v88h213v-86q0 -49 9.5 -93t33 -77.5t63.5 -54t101 -20.5q113 0 160 62.5t47 164.5v307q0 20 6 41q-20 -6 -41 -6h-375v182h375q20 0 41 -6q-6 23 -6 41v111q0 59 -3 124.5t-22.5 121t-63.5 91t-126 35.5q-63 0 -102.5 -23.5t-61 -60t-28.5 -83t-7 -93.5v-82h-213 v88q0 94 20.5 173t68.5 137.5t127 91.5t198 33q141 0 225 -44t128 -118t57.5 -172t13.5 -209v-514q0 -119 -8.5 -223.5t-49.5 -182t-126 -123t-238 -45.5q-117 0 -197 31t-128 86t-69.5 134t-21.5 173z" />
<glyph unicode="&#x42e;" horiz-adv-x="1677" d="M150 0v1581h210v-639q0 -18 -6 -41q23 6 41 6h240q20 0 27 -2q6 -2 10 -4q0 4 -2 10q-4 12 -4 29v90q0 121 15 225.5t63.5 182.5t135.5 123t230 45t230 -45t135.5 -123t63.5 -182.5t15 -225.5v-479q0 -121 -15 -225.5t-63.5 -182t-135.5 -123t-230 -45.5t-230 45.5 t-135.5 123t-63.5 182t-15 225.5v143q0 16 4 29q2 6 2 8q-4 0 -10 -2q-12 -4 -29 -4h-238q-18 0 -41 6q6 -20 6 -41v-690h-210zM877 537q0 -63 4 -131t26.5 -123.5t69.5 -91t133 -35.5t133 35.5t69.5 91t26.5 123t4 131.5v512q0 63 -4 129.5t-26.5 122t-69.5 90t-133 34.5 t-133 -34.5t-69.5 -90t-26.5 -122t-4 -129.5v-512z" />
<glyph unicode="&#x42f;" horiz-adv-x="1132" d="M76 0q37 76 50 161t17 171l7 102q4 63 10 129t43 119q23 31 49.5 49.5t60.5 34.5v6q-61 29 -99 67t-58.5 85t-27.5 103t-7 118q0 223 100.5 329.5t327.5 106.5h434v-1581h-211v647v27q0 10 4 24q-20 -6 -55 -6h-168q-49 0 -92 -22.5t-66 -69.5q-16 -37 -25.5 -86 t-11.5 -102l-4 -111q-4 -86 -11 -165t-40 -136h-227zM328 1143q0 -57 9 -106.5t33.5 -85.5t66.5 -56.5t106 -20.5h182q16 0 27.5 -1t25.5 -5q-4 14 -5 25.5t-1 28.5v426q0 16 1 27t5 26q-14 -4 -25.5 -5t-27.5 -1h-162q-53 0 -97 -9.5t-75 -36t-47 -75.5t-16 -131z" />
<glyph unicode="&#x430;" horiz-adv-x="911" d="M84 276v52q0 123 67.5 206.5t184.5 133.5l67 28l75 32q36 15 62.5 34.5t42 49.5t15.5 75q0 129 -139 129q-94 0 -124 -43t-30 -115v-47h-205v47q0 176 94.5 248t270.5 72q166 0 249 -72t83 -232v-780q0 -25 2 -48t12 -46h-195l-4 16q-2 8 -4 19.5t-2 21.5q0 16 -1 23.5 t3 13.5l-8 2q-20 -31 -53 -53q-29 -20 -72 -37.5t-106 -17.5q-59 0 -111.5 15t-90.5 50t-60.5 90t-22.5 133zM291 283q0 -68 38 -95.5t103 -27.5q78 0 119 49t41 127v192v28q0 9 1 16.5t3 16.5t4 27q-8 -4 -16 -12l-19 -13q-10 -7 -24 -13l-103 -48q-57 -27 -102 -69.5 t-45 -124.5v-53z" />
<glyph unicode="&#x431;" horiz-adv-x="964" d="M111 889q0 61 11 126.5t34.5 126t59.5 113t85 86.5l113 82l52 38q24 17 40 37t26.5 44.5t10.5 59.5h217q0 -100 -47 -173t-166 -143l-60 -35q-55 -33 -87.5 -70.5t-49.5 -70.5q-20 -37 -26 -76l8 -2q0 -2 7 13.5t30.5 35t64.5 36t107 16.5q96 0 156.5 -26t95 -76 t48 -122.5t13.5 -167.5v-364q0 -193 -84 -297.5t-287 -104.5q-106 0 -176.5 27t-113.5 77t-61.5 125t-18.5 173zM317 360q0 -45 5.5 -84.5t22.5 -70.5t50 -49.5t88 -18.5t88 18.5t50.5 49.5t21.5 71.5t4 83.5v388q0 43 -5 83.5t-21.5 71.5t-49 49.5t-88.5 18.5 q-57 0 -90 -18.5t-49 -49.5t-21.5 -70.5t-5.5 -84.5v-388z" />
<glyph unicode="&#x432;" horiz-adv-x="935" d="M131 0v1153h354q66 0 122.5 -16.5t98.5 -49t66.5 -81t24.5 -111.5v-74q0 -78 -28 -123t-62 -67q-39 -25 -93 -31v-6q57 -8 105 -37q41 -25 72.5 -75t31.5 -140v-70q0 -80 -26.5 -132t-73.5 -83.5t-108.5 -44t-133.5 -12.5h-350zM332 180q4 2 10 4t23 2h124q74 0 99.5 37 t25.5 92v41q0 53 -27.5 90t-97.5 37h-127q-18 0 -30 6q4 -16 5 -17t1 -11v-250q0 -16 -2 -23q-2 -6 -4 -8zM332 662q4 2 10 4t23 2h100q74 0 99.5 36.5t25.5 92.5v45q0 53 -27.5 90t-97.5 37h-103q-18 0 -30 6q4 -16 5 -17.5t1 -11.5v-254q0 -16 -2 -22t-4 -8z" />
<glyph unicode="&#x433;" horiz-adv-x="653" d="M131 0v1153h502v-184h-275q-8 0 -20 4q-6 2 -8 2l4 -8q2 -4 2 -19v-948h-205z" />
<glyph unicode="&#x434;" horiz-adv-x="937" d="M0 184h51q18 18 33 72q12 45 24.5 129t16.5 225l14 543h662v-942q0 -14 -2 -21q-2 -6 -4 -10q4 2 10 4q4 2 11 2h13h86v-432h-206v221q0 8 4 21q2 6 2 10q-6 0 -13 -2q-12 -4 -22 -4h-442q-10 0 -23 4q-6 2 -12 2q2 -4 4 -10t2 -21v-221h-209v430zM250 178q8 2 18 4 t21.5 3t25.5 1h240h18q8 0 15 -2q8 -2 14 -4q0 6 -2 15q-4 16 -4 32v711q0 14 4 27q2 6 2 10q-4 0 -10 -2q-12 -4 -29 -4h-186q-10 0 -27 4q-8 2 -12 2q2 -4 4 -10t2 -27l-14 -434q0 -16 -4 -63.5t-12.5 -100.5t-23.5 -99.5t-40 -62.5z" />
<glyph unicode="&#x435;" horiz-adv-x="937" d="M102 391v367q0 94 15.5 171t56.5 132t111.5 86t181.5 31q104 0 176 -26t116 -75t63.5 -118.5t19.5 -159.5v-273h-488q-16 0 -27.5 1t-25.5 5q4 -10 4 -23v-30v-168q0 -76 41 -125t121 -49q55 0 88 17.5t51.5 47t24.5 66.5t6 76v47h205v-49q0 -168 -87 -267.5t-288 -99.5 q-111 0 -182.5 30t-111.5 84t-55.5 131t-15.5 171zM301 692q23 6 51 6h242q23 0 47 -6q-6 31 -6 60v49q0 43 -5 82t-22.5 68.5t-51.5 47t-89 17.5q-51 0 -83 -16.5t-49.5 -46t-23.5 -68.5t-6 -84v-49q0 -10 -2 -21q-2 -10 -2 -19v-20z" />
<glyph unicode="&#x436;" horiz-adv-x="1329" d="M68 0q23 61 29.5 128t11.5 126l6 125q2 39 10 79t30.5 74.5t61.5 60t100 34.5v2q-61 12 -97 39.5t-54.5 62.5t-25.5 73t-9 70l-12 162q-4 37 -8.5 64.5t-10.5 52.5h203q6 -23 12.5 -50.5t8.5 -58.5l8 -122q4 -45 13 -84t29.5 -67t52.5 -43t81 -15h53v440h207v-440h53 q49 0 81 15t52.5 43t30.5 67t12 84l9 120q2 31 8 59.5t12 51.5h203q-6 -25 -10.5 -52.5t-8.5 -64.5l-12 -162q-2 -33 -9 -70.5t-25.5 -72.5t-54.5 -62.5t-97 -39.5v-2q61 -8 100 -34t61.5 -60.5t30.5 -74.5t10 -79l7 -125q4 -59 11 -126t30 -128h-203q-18 45 -24.5 100.5 t-10.5 100.5l-8 98q-4 49 -10.5 91t-27 73t-57 48t-102.5 17h-51v-528h-207v528h-51q-66 0 -102.5 -17t-57 -48t-27 -73t-10.5 -91l-8 -98q-4 -45 -10 -100.5t-25 -100.5h-202z" />
<glyph unicode="&#x437;" horiz-adv-x="882" d="M68 336v33h200v-50q0 -29 4 -60.5t19.5 -59t45.5 -45t79 -17.5q57 0 89 17.5t48 43t20.5 56.5t4.5 57v25q0 100 -44.5 135t-111.5 35h-90v180h90q74 0 115 35t41 131v29q0 72 -43 103.5t-97 31.5q-53 0 -86 -13.5t-51 -35t-24.5 -50t-6.5 -57.5v-37h-200v35 q0 72 18 130.5t61.5 100t114 65.5t174.5 24q96 0 162 -25t105.5 -67t58 -97t18.5 -119v-30q0 -76 -25.5 -122t-56.5 -73q-37 -31 -84 -43v-8q47 -6 84 -37q33 -27 58.5 -77t25.5 -140v-31q0 -182 -95 -258t-273 -76q-174 0 -261 82t-87 279z" />
<glyph unicode="&#x438;" horiz-adv-x="993" d="M131 0v1153h205v-453q0 -154 -6 -231q-4 -45 -8 -74q8 25 20 56q10 27 27.5 61.5t40.5 75.5l249 444v121h203v-1153h-203v430q0 96 2.5 160.5t6.5 105.5q4 47 8 76l-23 -57q-10 -27 -25.5 -59.5t-37.5 -71.5l-254 -451v-133h-205z" />
<glyph unicode="&#x439;" horiz-adv-x="993" d="M131 0v1153h205v-453q0 -154 -6 -231q-4 -45 -8 -74q8 25 20 56q10 27 27.5 61.5t40.5 75.5l249 444v121h203v-1153h-203v430q0 96 2.5 160.5t6.5 105.5q4 47 8 76l-23 -57q-10 -27 -25.5 -59.5t-37.5 -71.5l-254 -451v-133h-205zM201 1597h166q0 -29 5 -55t18 -45.5 t37 -32t60 -12.5q74 0 100.5 43t26.5 102h166q-10 -129 -82.5 -196.5t-201.5 -67.5q-135 0 -210 64.5t-85 199.5z" />
<glyph unicode="&#x43a;" horiz-adv-x="966" d="M131 0v1153h207v-440h115q96 0 134 59t42 150l6 118q2 29 5 49.5t7 34.5q4 16 8 29h203q-4 -12 -8 -31q-4 -16 -6 -36.5t-4 -49.5l-11 -162q-2 -33 -9 -70.5t-25.5 -72.5t-54 -61.5t-97.5 -38.5v-2q61 -8 100 -34t61.5 -61.5t31 -75.5t10.5 -79l6 -125q4 -59 11 -126 t30 -128h-203q-18 45 -24.5 100.5t-10.5 100.5l-8 98q-4 49 -10 91t-26.5 73t-57.5 48t-102 17h-113v-528h-207z" />
<glyph unicode="&#x43b;" horiz-adv-x="966" d="M0 -12v184q72 0 104.5 46t36.5 147l19 788h676v-1153h-207v938q0 14 4 27q2 6 2 10q-4 0 -10 -2q-12 -4 -29 -4h-201q-10 0 -26 4q-8 2 -13 2q2 -4 4 -10t2 -27l-12 -496q-2 -113 -12 -197.5t-45 -142t-103.5 -86t-189.5 -28.5z" />
<glyph unicode="&#x43c;" horiz-adv-x="1239" d="M131 0v1153h356q12 -61 27.5 -148t32.5 -167l37 -193q10 -47 15 -100l10 -106q5 -52 8.5 -99t5.5 -82h6q6 66 9 156t28 223l32 188l31 169q16 89 33 159h346v-1153h-203v737q0 31 3 72t7 78q6 43 11 90h-15l-16 -111q-8 -47 -15.5 -98t-15.5 -88l-137 -668h-219l-129 670 l-15 88l-18 98q-8 55 -20 113h-13q4 -53 11 -107q4 -45 7 -94t3 -84v-696h-203z" />
<glyph unicode="&#x43d;" horiz-adv-x="987" d="M131 0v1153h205v-412v-25q0 -9 -4 -26q16 4 25 4h26h221h26q9 0 25 -4q-4 16 -4 26v25v412h205v-1153h-205v463v25q0 9 4 26q-16 -4 -25 -4h-26h-221h-26q-9 0 -25 4q4 -16 4 -26v-25v-463h-205z" />
<glyph unicode="&#x43e;" horiz-adv-x="962" d="M111 377v399q0 195 84 298.5t286 103.5q106 0 177 -27t114 -78t61.5 -126t18.5 -171v-399q0 -193 -84 -297.5t-287 -104.5q-106 0 -177 27t-114 77t-61 125t-18 173zM315 360q0 -45 5.5 -84.5t22.5 -70.5t50 -49.5t88 -18.5t88 18.5t50.5 49.5t21.5 71.5t4 83.5v433 q0 43 -5 84t-21.5 71.5t-49 49t-88.5 18.5q-57 0 -90 -18.5t-49 -49t-21.5 -70.5t-5.5 -85v-433z" />
<glyph unicode="&#x43f;" horiz-adv-x="987" d="M131 0v1153h725v-1153h-205v948q0 6 4 19q2 6 2 8q-2 0 -8 -2q-12 -4 -18 -4h-273q-8 0 -20 4q-6 2 -8 2l4 -8q2 -4 2 -19v-948h-205z" />
<glyph unicode="&#x440;" horiz-adv-x="966" d="M129 -428v1581h203v-49q0 -25 -10 -55l8 -2q47 63 101 97t134 34q92 0 149.5 -32t89.5 -86t42 -126t10 -152v-381q0 -78 -8 -153.5t-38 -136t-87 -98.5t-156 -38q-84 0 -134 31t-99 94l-8 -2q4 -53 7 -108.5t3 -108.5v-309h-207zM338 399q0 -43 3 -90t18.5 -85t47 -62.5 t87.5 -24.5q57 0 88.5 24.5t47 62.5t18.5 84t3 91v355q0 45 -3 91t-18.5 84t-47 62.5t-88.5 24.5q-55 0 -87 -24.5t-47.5 -62.5t-18.5 -85t-3 -90v-355z" />
<glyph unicode="&#x441;" horiz-adv-x="917" d="M109 381v356q0 96 11 176t49 139.5t109.5 92.5t190.5 33q188 0 271 -85t83 -241v-90h-198v57q0 37 -4.5 73t-19.5 63.5t-45 44t-81 16.5q-63 0 -97 -24.5t-48.5 -63.5t-15.5 -86t-1 -92v-347q0 -41 2 -88t16.5 -87t45.5 -65.5t88 -25.5t90 20.5t48 53.5t18.5 75t3.5 85 v80h200v-82q0 -100 -17 -174t-60 -123t-114 -73t-177 -24q-104 0 -172 29t-107 82t-54 128t-15 167z" />
<glyph unicode="&#x442;" horiz-adv-x="800" d="M41 969v184h719v-184h-234q-8 0 -20 4q-6 2 -8 2l4 -8q2 -4 2 -19v-948h-205v944q0 10 4 23q2 6 2 8q-2 0 -8 -2q-12 -4 -23 -4h-233z" />
<glyph unicode="&#x443;" horiz-adv-x="845" d="M27 1153h213l95 -426q48 -211 87 -428h12q35 217 80 428l92 426h213l-348 -1339q-18 -72 -44 -118t-63.5 -74t-90 -39t-123.5 -11h-32q-15 0 -32 2v176q10 -2 29 -2q55 0 91 17.5t52 74.5l57 197z" />
<glyph unicode="&#x444;" horiz-adv-x="1386" d="M111 401v381q0 80 7 152t34.5 126t82 86t146.5 32q80 0 125 -34t90 -97l8 2q-4 14 -7 47.5t-3 48.5v438h199v-438q0 -14 -3.5 -48t-7.5 -48l9 -2q23 31 44 55t45.5 41.5t55.5 26t70 8.5q92 0 146 -32t82 -86t35 -126t7 -152v-381q0 -78 -5 -153.5t-32 -136t-80 -98.5 t-151 -38q-41 0 -71 8.5t-53.5 24t-43.5 38.5l-45 54l-9 -2q2 -27 5 -35l3 -12q1 -4 2 -12t1 -35v-432h-207v432q0 27 1 35t2 12l3 12q2 8 4 35l-8 2l-45 -54q-20 -24 -44 -39t-53.5 -23.5t-70.5 -8.5q-98 0 -151.5 38t-80 98.5t-31.5 136t-5 153.5zM315 308q0 -46 11.5 -84 t40 -62.5t86.5 -24.5q55 0 83.5 24.5t41 62.5t12.5 85v90v355v90q0 47 -12.5 85t-41 62.5t-83.5 24.5q-57 0 -86 -24.5t-40.5 -62.5t-11.5 -84v-91v-355v-91zM797 309q0 -47 12 -85t41 -62.5t84 -24.5q57 0 86 24.5t40 62.5t11 84v91v355v91q0 46 -11 84t-40 62.5t-86 24.5 q-55 0 -84 -24.5t-41 -62.5t-12 -85v-90v-355v-90z" />
<glyph unicode="&#x445;" horiz-adv-x="872" d="M12 0l312 596l-287 557h227l89 -200q44 -99 81 -203h8q35 104 78 203l86 200h225l-280 -557l305 -596h-233l-95 219q-47 109 -86 221h-8q-43 -113 -91 -221l-97 -219h-234z" />
<glyph unicode="&#x446;" horiz-adv-x="987" d="M131 0v1153h205v-946q0 -14 -2 -19l-4 -8q2 2 8 4t20 2h273q12 0 18 -2t8 -4q0 2 -2 8q-4 12 -4 19v946h205v-942q0 -16 -2 -23q-2 -6 -4 -8q2 2 8 4t25 2h104v-432h-209v221q0 10 4 23q2 6 2 8q-4 0 -10 -2q-12 -4 -22 -4h-621z" />
<glyph unicode="&#x447;" horiz-adv-x="958" d="M102 686v467h205v-371q0 -41 2 -79.5t15.5 -69.5t42 -49.5t82.5 -18.5q49 0 82.5 18.5t53 49.5t29 70.5t9.5 82.5v367h204v-1153h-204v342q0 29 1 50l2 42q1 20 3 42t4 50l-8 4q-98 -127 -252 -127q-129 0 -200 80t-71 203z" />
<glyph unicode="&#x448;" horiz-adv-x="1507" d="M131 0v1153h205v-946q0 -14 -2 -19l-4 -8q2 2 8 4t20 2h273q12 0 18 -2t8 -4q0 2 -2 8q-4 12 -4 19v946h205v-946q0 -14 -2 -19l-4 -8q2 2 8 4t21 2h272q12 0 18 -2t9 -4q0 2 -2 8q-4 12 -5 19v946h205v-1153h-1245z" />
<glyph unicode="&#x449;" horiz-adv-x="1507" d="M131 0v1153h205v-946q0 -14 -2 -19l-4 -8q2 2 8 4t20 2h273q12 0 18 -2t8 -4q0 2 -2 8q-4 12 -4 19v946h205v-946q0 -14 -2 -19l-4 -8q2 2 8 4t21 2h272q12 0 18 -2t9 -4q0 2 -2 8q-4 12 -5 19v946h205v-946q0 -14 -2 -19l-4 -8q4 2 10 4t21 2h106v-432h-209v221 q0 10 5 23q2 6 2 8q-2 0 -9 -2q-12 -4 -20 -4h-1145z" />
<glyph unicode="&#x44a;" horiz-adv-x="940" d="M0 969v184h420v-434q0 -14 -2 -21q-2 -6 -4 -10q4 2 10 4t20 2h99q66 0 124 -18.5t103 -55t70.5 -91t25.5 -126.5v-100q0 -76 -24.5 -133t-68.5 -95t-103.5 -56.5t-128.5 -18.5h-326v948q0 10 4 19q2 4 2 8q-2 0 -8 -2q-12 -4 -20 -4h-193zM414 180q12 6 30 6h74 q70 0 102.5 37t32.5 90v68q0 55 -30.5 92t-104.5 37h-72q-10 0 -22 4q-6 2 -10 2q2 -2 4 -8t2 -23v-276q0 -10 -1 -11.5t-5 -17.5z" />
<glyph unicode="&#x44b;" horiz-adv-x="1325" d="M131 0v1153h205v-434q0 -14 -2 -21q-2 -6 -4 -10q4 2 10 4t20 2h99q66 0 124 -18.5t103 -55t70.5 -91t25.5 -126.5v-100q0 -76 -24.5 -133t-68.5 -95t-103.5 -56.5t-128.5 -18.5h-326zM330 180q12 6 30 6h74q70 0 102.5 37t32.5 90v68q0 55 -30.5 92t-104.5 37h-72 q-10 0 -22 4q-6 2 -10 2q2 -2 4 -8t2 -23v-276q0 -10 -1 -11.5t-5 -17.5zM989 0v1153h205v-1153h-205z" />
<glyph unicode="&#x44c;" horiz-adv-x="856" d="M131 0v1153h205v-434q0 -14 -2 -21q-2 -6 -4 -10q4 2 10 4t20 2h99q66 0 124 -18.5t103 -55t70.5 -91t25.5 -126.5v-100q0 -76 -24.5 -133t-68.5 -95t-103.5 -56.5t-128.5 -18.5h-326zM330 180q12 6 30 6h74q70 0 102.5 37t32.5 90v68q0 55 -30.5 92t-104.5 37h-72 q-10 0 -22 4q-6 2 -10 2q2 -2 4 -8t2 -23v-276q0 -10 -1 -11.5t-5 -17.5z" />
<glyph unicode="&#x44d;" horiz-adv-x="917" d="M92 322v88h201v-82q0 -43 5 -78t22.5 -60.5t49 -39t83.5 -13.5q57 0 87.5 19.5t45 51.5t16.5 71.5t2 80.5v103v25q0 9 4 26q-16 -4 -25 -4h-26h-221v184h221h26q9 0 25 -4q-4 16 -4 26v25v101q0 23 -1 52.5t-15.5 57t-46 46t-90.5 18.5q-55 0 -87 -16.5t-47.5 -44 t-19.5 -63.5t-4 -73v-16h-199v49q0 154 83 240t272 86q121 0 191.5 -30t108 -83t49 -127t11.5 -160v-399q0 -92 -15.5 -167t-54.5 -127t-106.5 -81t-171.5 -29q-106 0 -177 22.5t-114 67t-60.5 109t-17.5 148.5z" />
<glyph unicode="&#x44e;" horiz-adv-x="1415" d="M131 0v1153h205v-420v-16q0 -8 -2 -15q-2 -8 -4 -14q6 2 14 4q6 2 14 2h17h155q27 0 33 -2t10 -4q0 4 -2 12q-4 16 -4 33v43q0 195 84 298.5t287 103.5q106 0 177 -27t114 -78t61.5 -126t18.5 -171v-399q0 -193 -84 -297.5t-287 -104.5q-106 0 -177 27t-114 77t-61.5 125 t-18.5 173v96q0 10 1 17.5t3 13.5q2 8 2 12q-4 0 -12 -2q-16 -4 -35 -4h-151h-17q-8 0 -14 2q-8 2 -12 2q0 -4 2 -12t2 -29v-473h-205zM772 360q0 -45 5 -84.5t22.5 -70.5t50.5 -49.5t88 -18.5t88 18.5t50.5 49.5t21.5 71.5t4 83.5v433q0 43 -5 84t-21.5 71.5t-49.5 49 t-88 18.5q-57 0 -90 -18.5t-49.5 -49t-21.5 -70.5t-5 -85v-433z" />
<glyph unicode="&#x44f;" horiz-adv-x="942" d="M106 0q12 31 18.5 53.5t10.5 45t6 47t4 57.5l11 106q10 96 37.5 147.5t58.5 75.5q37 29 76 33v8q-51 2 -92 29q-35 23 -64 76t-29 153v35q0 156 96.5 221.5t264.5 65.5h307v-1153h-205v477h-110q-37 0 -60.5 -16.5t-37 -41t-18.5 -56t-7 -62.5l-11 -113q-4 -53 -10 -89 t-12 -58q-8 -25 -12 -41h-222zM356 793q0 -55 26 -92t99 -37h99q16 0 22 -2t10 -5q0 2 -2 9q-4 12 -4 22v258q0 10 1 11t5 18q-12 -6 -30 -6h-101q-70 0 -97.5 -37t-27.5 -90v-49z" />
<glyph unicode="&#x450;" horiz-adv-x="937" d="M221 1587h227l101 -287h-162zM102 391v367q0 94 15.5 171t56.5 132t111.5 86t181.5 31q104 0 176 -26t116 -75t63.5 -118.5t19.5 -159.5v-273h-488q-16 0 -27.5 1t-25.5 5q4 -10 4 -23v-30v-168q0 -76 41 -125t121 -49q55 0 88 17.5t51.5 47t24.5 66.5t6 76v47h205v-49 q0 -168 -87 -267.5t-288 -99.5q-111 0 -182.5 30t-111.5 84t-55.5 131t-15.5 171zM301 692q23 6 51 6h242q23 0 47 -6q-6 31 -6 60v49q0 43 -5 82t-22.5 68.5t-51.5 47t-89 17.5q-51 0 -83 -16.5t-49.5 -46t-23.5 -68.5t-6 -84v-49q0 -10 -2 -21q-2 -10 -2 -19v-20z" />
<glyph unicode="&#x451;" horiz-adv-x="937" d="M102 391v367q0 94 15.5 171t56.5 132t111.5 86t181.5 31q104 0 176 -26t116 -75t63.5 -118.5t19.5 -159.5v-273h-488q-16 0 -27.5 1t-25.5 5q4 -10 4 -23v-30v-168q0 -76 41 -125t121 -49q55 0 88 17.5t51.5 47t24.5 66.5t6 76v47h205v-49q0 -168 -87 -267.5t-288 -99.5 q-111 0 -182.5 30t-111.5 84t-55.5 131t-15.5 171zM188 1348v233h191v-233h-191zM301 692q23 6 51 6h242q23 0 47 -6q-6 31 -6 60v49q0 43 -5 82t-22.5 68.5t-51.5 47t-89 17.5q-51 0 -83 -16.5t-49.5 -46t-23.5 -68.5t-6 -84v-49q0 -10 -2 -21q-2 -10 -2 -19v-20zM547 1348 v233h190v-233h-190z" />
<glyph unicode="&#x452;" horiz-adv-x="976" d="M-2 1311v170h94q25 0 45 -6q-6 23 -6 45v61h205v-61q0 -23 -6 -45q23 6 45 6h229v-170h-229q-23 0 -45 6q6 -27 6 -53v-86q0 -29 -1 -41.5t-2 -20.5t-3 -20.5t-4 -40.5l8 -4q98 127 252 127q129 0 199.5 -80t70.5 -203v-559q0 -78 -13.5 -142.5t-46 -110.5t-88 -70.5 t-141.5 -24.5q-23 0 -38 2t-37 4v176q10 -2 25 -2h26q39 0 60.5 10t32.5 28.5t13 47.5t2 65v480q0 41 -2 80t-15 69.5t-42 49t-82 18.5q-49 0 -83 -18.5t-53.5 -49t-28.5 -70.5t-9 -83v-795h-205v1272q0 25 6 45q-20 -6 -45 -6h-94z" />
<glyph unicode="&#x453;" horiz-adv-x="653" d="M131 0v1153h502v-184h-275q-8 0 -20 4q-6 2 -8 2l4 -8q2 -4 2 -19v-948h-205zM305 1323l101 287h227l-166 -287h-162z" />
<glyph unicode="&#x454;" horiz-adv-x="917" d="M109 381v356q0 96 11 176t49 139.5t109.5 92.5t190.5 33q188 0 271 -85t83 -241v-49h-198v16q0 37 -4.5 73t-18.5 63.5t-44 44t-83 16.5q-59 0 -92 -19.5t-48.5 -51.5t-18.5 -74t-3 -87v-43v-25q0 -9 -4 -26q16 4 26 4h25h222v-184h-222h-25q-9 0 -26 4q4 -16 4 -26v-25 v-82q0 -41 2 -84t16.5 -79t45.5 -58.5t88 -22.5q53 0 84 16.5t48 46t22.5 67.5t5.5 81v62h200v-41q0 -100 -17 -174t-60 -123t-114 -73t-177 -24q-104 0 -172 29t-107 82t-54 128t-15 167z" />
<glyph unicode="&#x455;" horiz-adv-x="882" d="M86 336v45h193v-41q0 -39 4 -76t19 -64.5t47 -45t87 -17.5q72 0 110 45t38 117q0 43 -17.5 77t-47.5 61.5t-67 51.5l-79 50l-84 51q-74 47 -127 114.5t-53 178.5q0 76 25.5 131t70.5 92t106.5 54.5t130.5 17.5q82 0 159 -31t120 -105q25 -43 35 -93t10 -101v-43h-195v39 q0 35 -4 65.5t-17 55t-40 39t-70 14.5q-57 0 -93 -33t-36 -92q0 -37 14.5 -63.5t36 -48t50.5 -39.5l55 -33l90 -56q49 -31 91 -63.5t74 -74.5t49 -94t17 -120q0 -160 -93 -243t-263 -83q-98 0 -164.5 26t-106.5 73t-57.5 113.5t-17.5 148.5z" />
<glyph unicode="&#x456;" horiz-adv-x="466" d="M131 0v1153h205v-1153h-205zM131 1354v227h205v-227h-205z" />
<glyph unicode="&#x457;" horiz-adv-x="466" d="M-41 1348v233h191v-233h-191zM131 0v1153h205v-1153h-205zM317 1348v233h191v-233h-191z" />
<glyph unicode="&#x458;" horiz-adv-x="466" d="M-31 -240q10 -2 22 -2h21q39 0 61.5 6.5t35 21.5t16.5 41t4 62v1264h205v-1253q0 -86 -8.5 -148.5t-37 -102.5t-83.5 -58.5t-150 -18.5h-43q-20 0 -43 2v186zM129 1354v227h205v-227h-205z" />
<glyph unicode="&#x459;" horiz-adv-x="1355" d="M0 -14v184q72 0 104.5 46t36.5 146l19 791h676v-434q0 -14 -2 -21q-2 -6 -5 -10q4 2 11 4q6 2 20 2h98q66 0 124.5 -18.5t103.5 -55t70.5 -91t25.5 -126.5v-100q0 -76 -24.5 -133t-68.5 -95t-103.5 -56.5t-129.5 -18.5h-327v938q0 14 4 27q2 6 2 10q-4 0 -10 -2 q-12 -4 -29 -4h-201q-10 0 -26 4q-8 2 -13 2q2 -4 4 -10t2 -27l-12 -498q-2 -113 -12 -197.5t-45 -142t-103.5 -86t-189.5 -28.5zM829 178q12 6 31 6h74q70 0 102.5 37t32.5 90v70q0 55 -30.5 92t-104.5 37h-72q-10 0 -22 4q-6 2 -11 2q2 -2 5 -8q2 -6 2 -23v-278 q0 -10 -1.5 -11.5t-5.5 -17.5z" />
<glyph unicode="&#x45a;" horiz-adv-x="1376" d="M131 0v1153h205v-412v-25q0 -9 -4 -26q16 4 25 4h26h221h26q9 0 25 -4q-4 16 -4 26v25v412h205v-434q0 -14 -2 -21q-2 -6 -4 -10q4 2 10 4t21 2h98q66 0 124 -18.5t103 -55t71 -91t26 -126.5v-100q0 -76 -25 -133t-69 -95t-103 -56.5t-129 -18.5h-326v463v25q0 9 4 26 q-16 -4 -25 -4h-26h-221h-26q-9 0 -25 4q4 -16 4 -26v-25v-463h-205zM850 180q12 6 31 6h73q70 0 103 37t33 90v68q0 55 -31 92t-105 37h-71q-10 0 -23 4q-6 2 -10 2q2 -2 4 -8t2 -23v-276q0 -10 -1 -11.5t-5 -17.5z" />
<glyph unicode="&#x45b;" horiz-adv-x="976" d="M-2 1311v170h94q25 0 45 -6q-6 23 -6 45v61h205v-61q0 -23 -6 -45q23 6 45 6h229v-170h-229q-23 0 -45 6q6 -27 6 -53v-86q0 -29 -1 -41.5t-2 -20.5t-3 -20.5t-4 -40.5l8 -4q98 127 252 127q129 0 199.5 -80t70.5 -203v-895h-205v799q0 41 -2 80t-15 69.5t-42 49 t-82 18.5q-49 0 -83 -18.5t-53.5 -49t-28.5 -70.5t-9 -83v-795h-205v1272q0 25 6 45q-20 -6 -45 -6h-94z" />
<glyph unicode="&#x45c;" horiz-adv-x="966" d="M131 0v1153h207v-440h115q49 0 80.5 15t52 43t31 67t12.5 84l8 129q4 63 14 102h203q-6 -25 -7 -52.5t-5 -64.5l-13 -162q-2 -33 -9 -70.5t-25.5 -72.5t-54 -61.5t-97.5 -38.5v-2q61 -8 100 -34t60.5 -61.5t31 -75.5t11.5 -79l6 -125q4 -59 11 -126t30 -128h-203 q-18 45 -24.5 100.5t-10.5 100.5l-8 98q-4 49 -11 91t-26.5 73t-56.5 48t-102 17h-113v-528h-207zM395 1323l101 287h227l-166 -287h-162z" />
<glyph unicode="&#x45d;" horiz-adv-x="993" d="M250 1587h227l101 -287h-162zM131 0v1153h205v-453q0 -154 -6 -231q-4 -45 -8 -74q8 25 20 56q10 27 27.5 61.5t40.5 75.5l249 444v121h203v-1153h-203v430q0 96 2.5 160.5t6.5 105.5q4 47 8 76l-23 -57q-10 -27 -25.5 -59.5t-37.5 -71.5l-254 -451v-133h-205z" />
<glyph unicode="&#x45e;" horiz-adv-x="845" d="M27 1153h213l95 -426q48 -211 87 -428h12q35 217 80 428l92 426h213l-348 -1339q-18 -72 -44 -118t-63.5 -74t-90 -39t-123.5 -11h-32q-15 0 -32 2v176q10 -2 29 -2q55 0 91 17.5t52 74.5l57 197zM131 1597h166q0 -29 5 -55t18.5 -45.5t37 -32t60.5 -12.5q74 0 100.5 43 t26.5 102h166q-10 -129 -83 -196.5t-202 -67.5q-135 0 -210 64.5t-85 199.5z" />
<glyph unicode="&#x45f;" horiz-adv-x="987" d="M131 0v1153h205v-946q0 -14 -2 -19l-4 -8q2 2 8 4t20 2h273q12 0 18 -2t8 -4q0 2 -2 8q-4 12 -4 19v946h205v-1153h-225q-14 0 -27 4q-6 2 -10 2q2 -2 4 -8t2 -27v-217h-209v217q0 14 4 27q2 6 2 8q-2 0 -8 -2q-12 -4 -24 -4h-234z" />
<glyph unicode="&#x470;" horiz-adv-x="1310" d="M129 758v823h211v-817q0 -59 3 -118.5t21.5 -109t57.5 -84t110 -42.5q6 0 15 -4l8 -5l-4 9q-2 4 -2 18v1153h211v-1153q0 -10 -4 -18q-2 -6 -2 -9l8 5q8 4 12 4q72 8 112 41.5t58.5 83t22.5 108.5t4 121v817h211v-823q0 -53 -1 -103.5t-8.5 -97.5t-26 -93t-52.5 -89 q-57 -72 -140.5 -108t-173.5 -42q-10 0 -16 2q-6 0 -10 2q0 -4 2 -8q4 -12 4 -18v-285h-211v285q0 12 2 18l4 8q-6 -2 -12 -2q-4 -2 -9 -2h-10q-88 8 -170 43t-137 107q-35 43 -53.5 89t-25.5 93t-8 97.5t-1 103.5z" />
<glyph unicode="&#x471;" horiz-adv-x="1314" d="M117 573v580h205v-657q0 -70 -1.5 -129.5t15 -102.5t59.5 -67.5t133 -24.5q10 0 23 -4q6 -2 12 -2q-2 4 -4 10t-2 31v1374h203v-1374q0 -10 -4 -27q-2 -8 -2 -14l34 6q82 0 124 24.5t60.5 67.5t19.5 102.5t1 129.5v657h205v-580q0 -139 -5 -245.5t-43 -181t-121 -114.5 t-236 -44q-14 0 -23 2l-16 4q0 -4 2 -12q4 -16 4 -25v-385h-203v385q0 20 2 27q2 6 4 10l-12 -4q-4 -2 -9 -2h-10q-158 2 -242.5 42t-122.5 113.5t-44 182t-6 247.5z" />
<glyph unicode="&#x490;" horiz-adv-x="923" d="M150 0v1581h499q23 0 29 -2t8 -4q0 4 -2 10q-4 12 -4 29v213h209v-432h-494q-18 0 -41 6q6 -20 6 -41v-1360h-210z" />
<glyph unicode="&#x491;" horiz-adv-x="694" d="M131 0v1153h307q18 0 25 -2q6 -2 8 -4q0 2 -2 8q-4 12 -4 27v213h209v-426h-316q-8 0 -20 4q-6 2 -8 2l4 -8q2 -4 2 -19v-948h-205z" />
<glyph unicode="&#x4ae;" horiz-adv-x="1103" d="M10 1581h230l206 -463l49 -112q24 -55 46 -115h8l46 114q24 56 50 111l215 465h230l-439 -893v-688h-211v676z" />
<glyph unicode="&#x4c0;" horiz-adv-x="509" d="M150 0v1581h210v-1581h-210z" />
<glyph unicode="&#x4c1;" horiz-adv-x="1523" d="M471 1992h135q12 -59 53.5 -86.5t98.5 -27.5q59 0 103 26.5t55 87.5h137q-10 -129 -83 -196.5t-202 -67.5q-135 0 -210 64.5t-87 199.5zM66 0q23 63 31.5 129t11.5 119l6 237q2 63 9 121t29.5 105t64.5 80.5t110 50.5v10q-68 4 -105 36t-54 75t-21.5 92t-6.5 88l-8 196 q-4 61 -7 122t-26 120h205q8 -14 17 -45q6 -27 13 -73t11 -122l10 -184q8 -131 57.5 -180t157.5 -49h74v653h2h209h2v-653h92q55 0 91 11t57.5 36.5t32 70t14.5 111.5l12 184q4 76 13.5 122t19.5 73q10 31 22 45h211q-23 -59 -35 -119.5t-16 -122.5l-8 -196q-2 -39 -6 -88 t-22.5 -92t-55.5 -75t-104 -36v-10q68 -16 112.5 -50t71 -80t38 -103.5t13.5 -123.5l6 -237q2 -53 10.5 -119t30.5 -129h-215q-10 25 -20.5 70t-14.5 112l-10 277q-2 59 -12 110.5t-38 91t-77 62t-129 22.5h-84v-745h-2h-209h-2v745h-63q-80 0 -128 -22.5t-76 -62t-39 -91 t-13 -110.5l-13 -277q-4 -66 -14 -111.5t-20 -70.5h-213z" />
<glyph unicode="&#x4c2;" horiz-adv-x="1329" d="M373 1564h135q12 -59 53.5 -86.5t98.5 -27.5q59 0 103 26.5t55 87.5h137q-10 -129 -83 -196.5t-202 -67.5q-135 0 -210 64.5t-87 199.5zM68 0q23 61 29.5 128t11.5 126l6 125q2 39 10 79t30.5 74.5t61.5 60t100 34.5v2q-61 12 -97 39.5t-54.5 62.5t-25.5 73t-9 70 l-12 162q-4 37 -8.5 64.5t-10.5 52.5h203q6 -23 12.5 -50.5t8.5 -58.5l8 -122q4 -45 13 -84t29.5 -67t52.5 -43t81 -15h53v440h207v-440h53q49 0 81 15t52.5 43t30.5 67t12 84l9 120q2 31 8 59.5t12 51.5h203q-6 -25 -10.5 -52.5t-8.5 -64.5l-12 -162q-2 -33 -9 -70.5 t-25.5 -72.5t-54.5 -62.5t-97 -39.5v-2q61 -8 100 -34t61.5 -60.5t30.5 -74.5t10 -79l7 -125q4 -59 11 -126t30 -128h-203q-18 45 -24.5 100.5t-10.5 100.5l-8 98q-4 49 -10.5 91t-27 73t-57 48t-102.5 17h-51v-528h-207v528h-51q-66 0 -102.5 -17t-57 -48t-27 -73 t-10.5 -91l-8 -98q-4 -45 -10 -100.5t-25 -100.5h-202z" />
<glyph unicode="&#x4d0;" horiz-adv-x="1026" d="M235 1992h135q12 -59 53.5 -86.5t98.5 -27.5q59 0 103 26.5t55 87.5h137q-10 -129 -83 -196.5t-202 -67.5q-135 0 -210 64.5t-87 199.5zM23 0l362 1581h283l333 -1581h-225l-92 489h-344l-96 -489h-221zM375 668l38.5 4t39.5 2h129q18 0 35 -2l34 -4q-25 82 -38 166 t-29 167q-8 43 -16.5 95.5t-15.5 106.5l-13.5 106.5t-12.5 95.5h-10q-6 -43 -14 -95l-17 -107l-16 -106q-8 -52 -18 -96l-33 -168q-16 -87 -43 -165z" />
<glyph unicode="&#x4d1;" horiz-adv-x="911" d="M174 1564h135q12 -59 53.5 -86.5t98.5 -27.5q59 0 103 26.5t55 87.5h137q-10 -129 -83 -196.5t-202 -67.5q-135 0 -210 64.5t-87 199.5zM84 276v52q0 123 67.5 206.5t184.5 133.5l67 28l75 32q36 15 62.5 34.5t42 49.5t15.5 75q0 129 -139 129q-94 0 -124 -43t-30 -115 v-47h-205v47q0 176 94.5 248t270.5 72q166 0 249 -72t83 -232v-780q0 -25 2 -48t12 -46h-195l-4 16q-2 8 -4 19.5t-2 21.5q0 16 -1 23.5t3 13.5l-8 2q-20 -31 -53 -53q-29 -20 -72 -37.5t-106 -17.5q-59 0 -111.5 15t-90.5 50t-60.5 90t-22.5 133zM291 283q0 -68 38 -95.5 t103 -27.5q78 0 119 49t41 127v192v28q0 9 1 16.5t3 16.5t4 27q-8 -4 -16 -12l-19 -13q-10 -7 -24 -13l-103 -48q-57 -27 -102 -69.5t-45 -124.5v-53z" />
<glyph unicode="&#x4d2;" horiz-adv-x="1026" d="M252 1729v233h190v-233h-190zM610 1729v233h190v-233h-190zM23 0l362 1581h283l333 -1581h-225l-92 489h-344l-96 -489h-221zM375 668l38.5 4t39.5 2h129q18 0 35 -2l34 -4q-25 82 -38 166t-29 167q-8 43 -16.5 95.5t-15.5 106.5l-13.5 106.5t-12.5 95.5h-10 q-6 -43 -14 -95l-17 -107l-16 -106q-8 -52 -18 -96l-33 -168q-16 -87 -43 -165z" />
<glyph unicode="&#x4d3;" horiz-adv-x="911" d="M191 1301v233h190v-233h-190zM549 1301v233h190v-233h-190zM84 276v52q0 123 67.5 206.5t184.5 133.5l67 28l75 32q36 15 62.5 34.5t42 49.5t15.5 75q0 129 -139 129q-94 0 -124 -43t-30 -115v-47h-205v47q0 176 94.5 248t270.5 72q166 0 249 -72t83 -232v-780 q0 -25 2 -48t12 -46h-195l-4 16q-2 8 -4 19.5t-2 21.5q0 16 -1 23.5t3 13.5l-8 2q-20 -31 -53 -53q-29 -20 -72 -37.5t-106 -17.5q-59 0 -111.5 15t-90.5 50t-60.5 90t-22.5 133zM291 283q0 -68 38 -95.5t103 -27.5q78 0 119 49t41 127v192v28q0 9 1 16.5t3 16.5t4 27 q-8 -4 -16 -12l-19 -13q-10 -7 -24 -13l-103 -48q-57 -27 -102 -69.5t-45 -124.5v-53z" />
<glyph unicode="&#x4d4;" horiz-adv-x="1589" d="M14 0l656 1581h827v-186h-485q-20 0 -41 6q6 -23 6 -41v-418q0 -20 -6 -41q20 6 41 6h452v-182h-452q-20 0 -41 6q6 -18 6 -39v-471q0 -20 -6 -41q20 6 41 6h485v-186h-731v455q0 18 6 41q-29 -6 -53 -7h-293l-186 -489h-226zM492 670q29 2 54 3t54 1h119q16 0 26.5 -1 t26.5 -5q-4 14 -5 24t-1 27v358q0 74 2 148.5t6 148.5l-12 2l-64 -181l-67 -179l-67 -174q-31 -86 -72 -172z" />
<glyph unicode="&#x4d5;" horiz-adv-x="1429" d="M84 266v60q0 86 38 152.5t103.5 111.5t153.5 69.5t190 28.5l35 2q-4 8 -6 17q-4 20 -4 49v125q0 66 -36 100.5t-107 34.5q-92 0 -119 -43t-27 -115v-47h-205v47q0 174 94.5 247t270.5 73q72 0 119 -17.5t75 -38.5q33 -25 52 -55q18 31 53 55q29 20 76 38t118 18 q104 0 176 -26t116 -75t63.5 -119.5t19.5 -158.5v-273h-487q-16 0 -27.5 1t-25.5 5q4 -10 4 -23v-30v-168q0 -76 41 -125t120 -49q55 0 88 17.5t51.5 47t24.5 66.5t6 76v47h205v-49q0 -170 -88 -268.5t-287 -98.5q-119 0 -181 34t-101 95q-37 -39 -117 -77.5t-190 -38.5 q-59 0 -111.5 16t-91.5 50t-60.5 86t-21.5 126zM291 279q0 -59 38 -89t103 -30q39 0 68.5 11t50.5 26q23 16 41 39v229q0 16 1 26.5t3 18.5t6 14l-41 -2q-70 -4 -121 -22.5t-83.5 -46t-49 -61.5t-16.5 -66v-47zM786 692q12 0 23 2q10 2 19.5 3t15.5 1h241q23 0 48 -6 q-6 31 -7 60v49q0 43 -5 82t-22.5 68.5t-51 47t-89.5 17.5q-51 0 -82.5 -16.5t-49 -46t-23.5 -68.5t-6 -84v-53q0 -10 -2 -19.5t-4 -17.5q-3 -9 -5 -19z" />
<glyph unicode="&#x4d6;" horiz-adv-x="976" d="M225 1992h135q12 -59 53.5 -86.5t98.5 -27.5q59 0 103 26.5t55 87.5h137q-10 -129 -83 -196.5t-202 -67.5q-135 0 -210 64.5t-87 199.5zM145 0v1581h740v-186h-494q-18 0 -41 6q6 -20 6 -41v-418q0 -18 -6 -41q23 6 41 6h457v-182h-457q-18 0 -41 6q6 -20 6 -41v-469 q0 -18 -6 -41q23 6 41 6h494v-186h-740z" />
<glyph unicode="&#x4d7;" horiz-adv-x="937" d="M176 1564h135q12 -59 53.5 -86.5t98.5 -27.5q59 0 103 26.5t55 87.5h137q-10 -129 -83 -196.5t-202 -67.5q-135 0 -210 64.5t-87 199.5zM102 391v367q0 94 15.5 171t56.5 132t111.5 86t181.5 31q104 0 176 -26t116 -75t63.5 -118.5t19.5 -159.5v-273h-488q-16 0 -27.5 1 t-25.5 5q4 -10 4 -23v-30v-168q0 -76 41 -125t121 -49q55 0 88 17.5t51.5 47t24.5 66.5t6 76v47h205v-49q0 -168 -87 -267.5t-288 -99.5q-111 0 -182.5 30t-111.5 84t-55.5 131t-15.5 171zM301 692q23 6 51 6h242q23 0 47 -6q-6 31 -6 60v49q0 43 -5 82t-22.5 68.5t-51.5 47 t-89 17.5q-51 0 -83 -16.5t-49.5 -46t-23.5 -68.5t-6 -84v-49q0 -10 -2 -21q-2 -10 -2 -19v-20z" />
<glyph unicode="&#x4dc;" horiz-adv-x="1523" d="M488 1729v233h190v-233h-190zM846 1729v233h190v-233h-190zM66 0q23 63 31.5 129t11.5 119l6 237q2 63 9 121t29.5 105t64.5 80.5t110 50.5v10q-68 4 -105 36t-54 75t-21.5 92t-6.5 88l-8 196q-4 61 -7 122t-26 120h205q8 -14 17 -45q6 -27 13 -73t11 -122l10 -184 q8 -131 57.5 -180t157.5 -49h74v653h2h209h2v-653h92q55 0 91 11t57.5 36.5t32 70t14.5 111.5l12 184q4 76 13.5 122t19.5 73q10 31 22 45h211q-23 -59 -35 -119.5t-16 -122.5l-8 -196q-2 -39 -6 -88t-22.5 -92t-55.5 -75t-104 -36v-10q68 -16 112.5 -50t71 -80t38 -103.5 t13.5 -123.5l6 -237q2 -53 10.5 -119t30.5 -129h-215q-10 25 -20.5 70t-14.5 112l-10 277q-2 59 -12 110.5t-38 91t-77 62t-129 22.5h-84v-745h-2h-209h-2v745h-63q-80 0 -128 -22.5t-76 -62t-39 -91t-13 -110.5l-13 -277q-4 -66 -14 -111.5t-20 -70.5h-213z" />
<glyph unicode="&#x4dd;" horiz-adv-x="1329" d="M390 1301v233h190v-233h-190zM748 1301v233h190v-233h-190zM68 0q23 61 29.5 128t11.5 126l6 125q2 39 10 79t30.5 74.5t61.5 60t100 34.5v2q-61 12 -97 39.5t-54.5 62.5t-25.5 73t-9 70l-12 162q-4 37 -8.5 64.5t-10.5 52.5h203q6 -23 12.5 -50.5t8.5 -58.5l8 -122 q4 -45 13 -84t29.5 -67t52.5 -43t81 -15h53v440h207v-440h53q49 0 81 15t52.5 43t30.5 67t12 84l9 120q2 31 8 59.5t12 51.5h203q-6 -25 -10.5 -52.5t-8.5 -64.5l-12 -162q-2 -33 -9 -70.5t-25.5 -72.5t-54.5 -62.5t-97 -39.5v-2q61 -8 100 -34t61.5 -60.5t30.5 -74.5 t10 -79l7 -125q4 -59 11 -126t30 -128h-203q-18 45 -24.5 100.5t-10.5 100.5l-8 98q-4 49 -10.5 91t-27 73t-57 48t-102.5 17h-51v-528h-207v528h-51q-66 0 -102.5 -17t-57 -48t-27 -73t-10.5 -91l-8 -98q-4 -45 -10 -100.5t-25 -100.5h-202z" />
<glyph unicode="&#x4de;" d="M252 1729v233h190v-233h-190zM610 1729v233h190v-233h-190zM80 418v86h211v-66q0 -51 8 -101t31.5 -89t66.5 -63.5t111 -24.5q78 0 124 26.5t69.5 70.5t30.5 100.5t7 113.5v61q0 70 -24.5 112t-64.5 64.5t-89 29.5t-100 7h-113v183h113q55 0 104 7t86 30.5t58.5 66.5 t21.5 117v92q0 94 -59.5 139t-147.5 45q-61 0 -102 -20.5t-64.5 -54t-33 -77.5t-9.5 -93v-66h-209v66q0 201 99.5 313.5t320.5 112.5q92 0 168 -21.5t131.5 -64.5t85 -108.5t29.5 -154.5v-83q0 -117 -29.5 -182.5t-66.5 -98.5q-43 -37 -99 -47v-6q57 -14 103 -54 q39 -35 70.5 -96t31.5 -168v-110q0 -100 -23.5 -181t-75.5 -137.5t-135 -87.5t-200 -31q-233 0 -334.5 117t-101.5 326z" />
<glyph unicode="&#x4df;" horiz-adv-x="882" d="M164 1301v233h190v-233h-190zM522 1301v233h190v-233h-190zM68 336v33h200v-50q0 -29 4 -60.5t19.5 -59t45.5 -45t79 -17.5q57 0 89 17.5t48 43t20.5 56.5t4.5 57v25q0 100 -44.5 135t-111.5 35h-90v180h90q74 0 115 35t41 131v29q0 72 -43 103.5t-97 31.5 q-53 0 -86 -13.5t-51 -35t-24.5 -50t-6.5 -57.5v-37h-200v35q0 72 18 130.5t61.5 100t114 65.5t174.5 24q96 0 162 -25t105.5 -67t58 -97t18.5 -119v-30q0 -76 -25.5 -122t-56.5 -73q-37 -31 -84 -43v-8q47 -6 84 -37q33 -27 58.5 -77t25.5 -140v-31q0 -182 -95 -258 t-273 -76q-174 0 -261 82t-87 279z" />
<glyph unicode="&#x4e2;" horiz-adv-x="1245" d="M373 1728v146h500v-146h-500zM150 0v1581h210v-868q0 -92 -2 -201t-6 -201l10 -4q10 49 27 106l34 112q17 56 36 108l33 88l344 860h260v-1581h-211v930q0 84 2 186.5t6 186.5l-10 2q-14 -70 -28.5 -125.5t-30 -104.5t-31.5 -94l-35 -92l-348 -889h-260z" />
<glyph unicode="&#x4e3;" horiz-adv-x="993" d="M246 1300v146h500v-146h-500zM131 0v1153h205v-453q0 -154 -6 -231q-4 -45 -8 -74q8 25 20 56q10 27 27.5 61.5t40.5 75.5l249 444v121h203v-1153h-203v430q0 96 2.5 160.5t6.5 105.5q4 47 8 76l-23 -57q-10 -27 -25.5 -59.5t-37.5 -71.5l-254 -451v-133h-205z" />
<glyph unicode="&#x4e4;" horiz-adv-x="1245" d="M349 1729v233h190v-233h-190zM707 1729v233h190v-233h-190zM150 0v1581h210v-868q0 -92 -2 -201t-6 -201l10 -4q10 49 27 106l34 112q17 56 36 108l33 88l344 860h260v-1581h-211v930q0 84 2 186.5t6 186.5l-10 2q-14 -70 -28.5 -125.5t-30 -104.5t-31.5 -94l-35 -92 l-348 -889h-260z" />
<glyph unicode="&#x4e5;" horiz-adv-x="993" d="M222 1301v233h190v-233h-190zM580 1301v233h190v-233h-190zM131 0v1153h205v-453q0 -154 -6 -231q-4 -45 -8 -74q8 25 20 56q10 27 27.5 61.5t40.5 75.5l249 444v121h203v-1153h-203v430q0 96 2.5 160.5t6.5 105.5q4 47 8 76l-23 -57q-10 -27 -25.5 -59.5t-37.5 -71.5 l-254 -451v-133h-205z" />
<glyph unicode="&#x4e6;" horiz-adv-x="1134" d="M293 1729v233h190v-233h-190zM651 1729v233h190v-233h-190zM123 551v479q0 121 15.5 225.5t63.5 182.5t135 123t230 45t230.5 -45t135.5 -123t63.5 -182.5t15.5 -225.5v-479q0 -121 -15.5 -225.5t-63.5 -182t-135 -123t-231 -45.5q-143 0 -230 45.5t-135 123t-63.5 182 t-15.5 225.5zM334 537q0 -63 4 -131t26.5 -123.5t69.5 -91t133 -35.5t133.5 35.5t70 91t26.5 123t4 131.5v512q0 63 -4 129.5t-26.5 122t-70 90t-133.5 34.5t-133 -34.5t-69.5 -90t-26.5 -122t-4 -129.5v-512z" />
<glyph unicode="&#x4e7;" horiz-adv-x="962" d="M207 1301v233h190v-233h-190zM565 1301v233h190v-233h-190zM111 377v399q0 195 84 298.5t286 103.5q106 0 177 -27t114 -78t61.5 -126t18.5 -171v-399q0 -193 -84 -297.5t-287 -104.5q-106 0 -177 27t-114 77t-61 125t-18 173zM315 360q0 -45 5.5 -84.5t22.5 -70.5 t50 -49.5t88 -18.5t88 18.5t50.5 49.5t21.5 71.5t4 83.5v433q0 43 -5 84t-21.5 71.5t-49 49t-88.5 18.5q-57 0 -90 -18.5t-49 -49t-21.5 -70.5t-5.5 -85v-433z" />
<glyph unicode="&#x4e8;" horiz-adv-x="1146" d="M129 551v479q0 53 1 109.5t8 112t25.5 107.5t53.5 95q63 82 159.5 117t196.5 35t196.5 -35t160.5 -117q35 -43 53 -95t25.5 -107.5t8.5 -112t1 -109.5v-479q0 -53 -1 -109.5t-8.5 -112t-25.5 -107.5t-53 -95q-63 -82 -159.5 -117t-197.5 -35q-100 0 -196 35t-160 117 q-35 43 -53.5 95t-25.5 107.5t-8 112t-1 109.5zM340 557q0 -63 4 -134t26.5 -130.5t69.5 -98t133 -38.5t133.5 38.5t70 98t26.5 130.5t4 134v471q0 63 -4 134t-26.5 129.5t-70 96t-133.5 37.5t-133 -37.5t-69.5 -96t-26.5 -129t-4 -134.5v-471zM397 725v182h348v-182h-348z " />
<glyph unicode="&#x4e9;" horiz-adv-x="974" d="M117 377v831q0 195 84 298.5t286 103.5q106 0 177 -27t114 -78t61.5 -125.5t18.5 -171.5v-831q0 -195 -84 -298.5t-287 -103.5q-106 0 -176.5 27t-113.5 77t-61.5 125t-18.5 173zM322 360q0 -45 5 -84.5t22.5 -70.5t50 -49.5t87.5 -18.5t88 18.5t50.5 49.5t21.5 71.5 t4 83.5v365h-329v-365zM322 907h329v318q0 43 -5 84t-21.5 71.5t-49 49t-88.5 18.5q-57 0 -89.5 -18.5t-50 -49t-21.5 -70.5t-4 -85v-318z" />
<glyph unicode="&#x4ea;" horiz-adv-x="1146" d="M299 1729v233h190v-233h-190zM657 1729v233h190v-233h-190zM129 551v479q0 53 1 109.5t8 112t25.5 107.5t53.5 95q63 82 159.5 117t196.5 35t196.5 -35t160.5 -117q35 -43 53 -95t25.5 -107.5t8.5 -112t1 -109.5v-479q0 -53 -1 -109.5t-8.5 -112t-25.5 -107.5t-53 -95 q-63 -82 -159.5 -117t-197.5 -35q-100 0 -196 35t-160 117q-35 43 -53.5 95t-25.5 107.5t-8 112t-1 109.5zM340 557q0 -63 4 -134t26.5 -130.5t69.5 -98t133 -38.5t133.5 38.5t70 98t26.5 130.5t4 134v471q0 63 -4 134t-26.5 129.5t-70 96t-133.5 37.5t-133 -37.5t-69.5 -96 t-26.5 -129t-4 -134.5v-471zM397 725v182h348v-182h-348z" />
<glyph unicode="&#x4eb;" horiz-adv-x="974" d="M213 1733v233h190v-233h-190zM571 1733v233h190v-233h-190zM117 377v831q0 195 84 298.5t286 103.5q106 0 177 -27t114 -78t61.5 -125.5t18.5 -171.5v-831q0 -195 -84 -298.5t-287 -103.5q-106 0 -176.5 27t-113.5 77t-61.5 125t-18.5 173zM322 360q0 -45 5 -84.5 t22.5 -70.5t50 -49.5t87.5 -18.5t88 18.5t50.5 49.5t21.5 71.5t4 83.5v365h-329v-365zM322 907h329v318q0 43 -5 84t-21.5 71.5t-49 49t-88.5 18.5q-57 0 -89.5 -18.5t-50 -49t-21.5 -70.5t-4 -85v-318z" />
<glyph unicode="&#x4ec;" horiz-adv-x="1050" d="M230 1729v233h190v-233h-190zM588 1729v233h190v-233h-190zM90 399v88h213v-86q0 -49 9.5 -93t33 -77.5t63.5 -54t101 -20.5q113 0 160 62.5t47 164.5v307q0 20 6 41q-20 -6 -41 -6h-375v182h375q20 0 41 -6q-6 23 -6 41v111q0 59 -3 124.5t-22.5 121t-63.5 91t-126 35.5 q-63 0 -102.5 -23.5t-61 -60t-28.5 -83t-7 -93.5v-82h-213v88q0 94 20.5 173t68.5 137.5t127 91.5t198 33q141 0 225 -44t128 -118t57.5 -172t13.5 -209v-514q0 -119 -8.5 -223.5t-49.5 -182t-126 -123t-238 -45.5q-117 0 -197 31t-128 86t-69.5 134t-21.5 173z" />
<glyph unicode="&#x4ed;" horiz-adv-x="917" d="M175 1301v233h190v-233h-190zM533 1301v233h190v-233h-190zM92 322v88h201v-82q0 -43 5 -78t22.5 -60.5t49 -39t83.5 -13.5q57 0 87.5 19.5t45 51.5t16.5 71.5t2 80.5v103v25q0 9 4 26q-16 -4 -25 -4h-26h-221v184h221h26q9 0 25 -4q-4 16 -4 26v25v101q0 23 -1 52.5 t-15.5 57t-46 46t-90.5 18.5q-55 0 -87 -16.5t-47.5 -44t-19.5 -63.5t-4 -73v-16h-199v49q0 154 83 240t272 86q121 0 191.5 -30t108 -83t49 -127t11.5 -160v-399q0 -92 -15.5 -167t-54.5 -127t-106.5 -81t-171.5 -29q-106 0 -177 22.5t-114 67t-60.5 109t-17.5 148.5z" />
<glyph unicode="&#x4ee;" horiz-adv-x="942" d="M211 1728v146h500v-146h-500zM-10 1581h225l162 -481q31 -92 48 -168l28 -129q10 -63 14 -113h10q10 59 25 133q12 63 30.5 147.5t47.5 182.5l122 428h230l-346 -1235q-20 -72 -44 -138.5t-61 -118.5t-92 -83t-139 -31q-43 0 -80 3.5t-66 7.5q-33 6 -59 12l35 178 q12 -4 31 -8q16 -4 36.5 -6t45.5 -2q66 0 98.5 40t54.5 117l12 41l9 34q4 17 8 28z" />
<glyph unicode="&#x4ef;" horiz-adv-x="845" d="M172 1300v146h500v-146h-500zM27 1153h213l95 -426q48 -211 87 -428h12q35 217 80 428l92 426h213l-348 -1339q-18 -72 -44 -118t-63.5 -74t-90 -39t-123.5 -11h-32q-15 0 -32 2v176q10 -2 29 -2q55 0 91 17.5t52 74.5l57 197z" />
<glyph unicode="&#x4f0;" horiz-adv-x="942" d="M187 1729v233h190v-233h-190zM545 1729v233h190v-233h-190zM-10 1581h225l162 -481q31 -92 48 -168l28 -129q10 -63 14 -113h10q10 59 25 133q12 63 30.5 147.5t47.5 182.5l122 428h230l-346 -1235q-20 -72 -44 -138.5t-61 -118.5t-92 -83t-139 -31q-43 0 -80 3.5 t-66 7.5q-33 6 -59 12l35 178q12 -4 31 -8q16 -4 36.5 -6t45.5 -2q66 0 98.5 40t54.5 117l12 41l9 34q4 17 8 28z" />
<glyph unicode="&#x4f1;" horiz-adv-x="845" d="M148 1301v233h190v-233h-190zM506 1301v233h190v-233h-190zM27 1153h213l95 -426q48 -211 87 -428h12q35 217 80 428l92 426h213l-348 -1339q-18 -72 -44 -118t-63.5 -74t-90 -39t-123.5 -11h-32q-15 0 -32 2v176q10 -2 29 -2q55 0 91 17.5t52 74.5l57 197z" />
<glyph unicode="&#x4f2;" horiz-adv-x="942" d="M219 1729l101 287h227l-166 -287h-162zM543 1729l100 287h228l-166 -287h-162zM-10 1581h225l162 -481q31 -92 48 -168l28 -129q10 -63 14 -113h10q10 59 25 133q12 63 30.5 147.5t47.5 182.5l122 428h230l-346 -1235q-20 -72 -44 -138.5t-61 -118.5t-92 -83t-139 -31 q-43 0 -80 3.5t-66 7.5q-33 6 -59 12l35 178q12 -4 31 -8q16 -4 36.5 -6t45.5 -2q66 0 98.5 40t54.5 117l12 41l9 34q4 17 8 28z" />
<glyph unicode="&#x4f3;" horiz-adv-x="845" d="M180 1300l101 287h227l-166 -287h-162zM504 1300l100 287h228l-166 -287h-162zM27 1153h213l95 -426q48 -211 87 -428h12q35 217 80 428l92 426h213l-348 -1339q-18 -72 -44 -118t-63.5 -74t-90 -39t-123.5 -11h-32q-15 0 -32 2v176q10 -2 29 -2q55 0 91 17.5t52 74.5 l57 197z" />
<glyph unicode="&#x4f4;" horiz-adv-x="1142" d="M265 1729v233h190v-233h-190zM623 1729v233h190v-233h-190zM84 1130v451h211v-416v-90q0 -53 18.5 -102t64.5 -84t138 -35q72 0 116 3t70.5 8t43 11.5t34.5 10.5v694h213v-1581h-213v629q0 16 2 31.5t4 25.5l5 25q-72 -29 -137.5 -36t-153.5 -7q-137 0 -219 35.5t-126 98 t-57.5 147.5t-13.5 181z" />
<glyph unicode="&#x4f5;" horiz-adv-x="958" d="M191 1301v233h190v-233h-190zM549 1301v233h190v-233h-190zM102 686v467h205v-371q0 -41 2 -79.5t15.5 -69.5t42 -49.5t82.5 -18.5q49 0 82.5 18.5t53 49.5t29 70.5t9.5 82.5v367h204v-1153h-204v342q0 29 1 50l2 42q1 20 3 42t4 50l-8 4q-98 -127 -252 -127 q-129 0 -200 80t-71 203z" />
<glyph unicode="&#x4f8;" horiz-adv-x="1558" d="M504 1729v233h190v-233h-190zM862 1729v233h190v-233h-190zM150 0v1581h212v-627q0 -16 -1 -27.5t-5 -25.5q14 4 25.5 5t28.5 1h178q113 0 187.5 -36.5t119.5 -98t63.5 -141.5t18.5 -168v-29q0 -106 -19.5 -187t-66.5 -136.5t-124 -83t-194 -27.5h-423zM354 178 q16 4 26.5 6t31.5 2h147q66 0 106 18.5t62.5 51.5t30.5 79t8 101v62q0 51 -9 93t-36 71.5t-72 46t-117 16.5h-120q-35 0 -58 6q4 -16 5 -26.5t1 -26.5v-447q0 -16 -1 -26.5t-5 -26.5zM1198 0v1581h211v-1581h-211z" />
<glyph unicode="&#x4f9;" horiz-adv-x="1325" d="M390 1301v233h190v-233h-190zM748 1301v233h190v-233h-190zM131 0v1153h205v-434q0 -14 -2 -21q-2 -6 -4 -10q4 2 10 4t20 2h99q66 0 124 -18.5t103 -55t70.5 -91t25.5 -126.5v-100q0 -76 -24.5 -133t-68.5 -95t-103.5 -56.5t-128.5 -18.5h-326zM330 180q12 6 30 6h74 q70 0 102.5 37t32.5 90v68q0 55 -30.5 92t-104.5 37h-72q-10 0 -22 4q-6 2 -10 2q2 -2 4 -8t2 -23v-276q0 -10 -1 -11.5t-5 -17.5zM989 0v1153h205v-1153h-205z" />
<glyph unicode="&#x2000;" horiz-adv-x="1024" />
<glyph unicode="&#x2001;" horiz-adv-x="2048" />
<glyph unicode="&#x2002;" horiz-adv-x="1024" />
<glyph unicode="&#x2003;" horiz-adv-x="2048" />
<glyph unicode="&#x2004;" horiz-adv-x="681" />
<glyph unicode="&#x2005;" horiz-adv-x="512" />
<glyph unicode="&#x2006;" horiz-adv-x="339" />
<glyph unicode="&#x2007;" />
<glyph unicode="&#x2008;" horiz-adv-x="428" />
<glyph unicode="&#x2009;" horiz-adv-x="204" />
<glyph unicode="&#x200a;" horiz-adv-x="20" />
<glyph unicode="&#x200b;" horiz-adv-x="0" />
<glyph unicode="&#x200c;" horiz-adv-x="0" />
<glyph unicode="&#x200d;" horiz-adv-x="0" />
<glyph unicode="&#x200e;" horiz-adv-x="681" />
<glyph unicode="&#x200f;" horiz-adv-x="681" />
<glyph unicode="&#x2010;" horiz-adv-x="626" d="M115 524v193h397v-193h-397z" />
<glyph unicode="&#x2011;" horiz-adv-x="626" d="M115 524v193h397v-193h-397z" />
<glyph unicode="&#x2012;" d="M115 524v193h819v-193h-819z" />
<glyph unicode="&#x2013;" horiz-adv-x="790" d="M0 524v193h791v-193h-791z" />
<glyph unicode="&#x2014;" horiz-adv-x="1005" d="M0 522v195h1006v-195h-1006z" />
<glyph unicode="&#x2015;" horiz-adv-x="4096" d="M115 524v193h3866v-193h-3866z" />
<glyph unicode="&#x2016;" horiz-adv-x="987" d="M668 -475v2056h145v-2056h-145zM174 -475v2056h145v-2056h-145z" />
<glyph unicode="&#x2018;" horiz-adv-x="434" d="M111 1087v187q0 68 10 120t34.5 94t65.5 74.5t103 61.5v-154q-53 -29 -67.5 -66.5t-20.5 -92.5q12 6 21 7t24 1h43v-232h-213z" />
<glyph unicode="&#x2019;" horiz-adv-x="434" d="M111 1210q53 29 67.5 66t20.5 94q-12 -6 -21.5 -7t-23.5 -1h-43v231h213v-186q0 -68 -10.5 -120t-34 -94t-64.5 -75t-102 -61z" />
<glyph unicode="&#x201a;" horiz-adv-x="428" d="M111 0v231h206v-186q0 -66 -9 -118t-32.5 -94t-62.5 -75.5t-100 -62.5l-2 153q51 27 65 66t21 94q-12 -6 -21.5 -7t-21.5 -1h-43z" />
<glyph unicode="&#x201c;" horiz-adv-x="806" d="M106 1087v187q0 68 10.5 120t35 94t65.5 74.5t102 61.5v-154q-53 -29 -67 -66.5t-21 -92.5q12 6 21.5 7t23.5 1h43v-232h-213zM479 1087v187q0 68 10.5 120t35 94t65.5 74.5t102 61.5v-154q-53 -29 -67.5 -65.5t-20.5 -93.5q12 6 21.5 7t23.5 1h43v-232h-213z" />
<glyph unicode="&#x201d;" horiz-adv-x="806" d="M106 1210q53 29 67.5 66t21.5 94q-12 -6 -21.5 -7t-23.5 -1h-44v231h213v-186q0 -68 -10 -120t-33.5 -94t-64.5 -75t-102 -61zM479 1210q53 29 67.5 67t20.5 93q-12 -6 -21 -7t-24 -1h-43v231h213v-186q0 -68 -10 -120t-33.5 -94t-64.5 -75t-103 -61z" />
<glyph unicode="&#x201e;" horiz-adv-x="806" d="M121 0v231h213v-186q0 -68 -10.5 -120t-34 -94t-64.5 -74.5t-102 -61.5l-2 153q53 29 67.5 66t20.5 94q-12 -6 -21.5 -7t-23.5 -1h-43zM494 0v231h213v-186q0 -68 -10.5 -120t-34 -94t-64.5 -74.5t-102 -61.5l-2 153q53 29 67 67t21 93q-12 -6 -21.5 -7t-23.5 -1h-43z " />
<glyph unicode="&#x2020;" d="M125 967v186h258q20 0 43 -6q-4 10 -6 20.5t-2 20.5v393h213v-393q0 -10 -2 -20.5t-6 -20.5q20 6 41 6h260v-186h-258q-23 0 -43 6q4 -10 6 -20.5t2 -20.5v-932h-213v932q0 10 2 20.5t6 20.5q-23 -6 -41 -6h-260z" />
<glyph unicode="&#x2021;" d="M125 438v187h258q20 0 43 -7q-4 10 -6 20.5t-2 20.5v273q0 10 2 20.5t6 20.5q-23 -6 -41 -6h-260v186h258q20 0 43 -6q-4 10 -6 20.5t-2 20.5v393h213v-393q0 -10 -2 -20.5t-6 -20.5q20 6 41 6h260v-186h-258q-23 0 -43 6q4 -10 6 -20.5t2 -20.5v-273q0 -10 -2 -20 t-6 -21q20 6 41 7h260v-187h-258q-23 0 -43 6q4 -10 6 -20t2 -21v-403h-213v403q0 10 2 20.5t6 20.5q-23 -6 -41 -6h-260z" />
<glyph unicode="&#x2022;" horiz-adv-x="729" d="M0 788q0 76 28.5 142.5t78 116t116 78t142.5 28.5t142 -28.5t115.5 -78t78 -116t28.5 -142.5t-28.5 -142t-78 -115.5t-116 -78t-141.5 -28.5q-76 0 -142.5 28.5t-116 78t-78 115.5t-28.5 142z" />
<glyph unicode="&#x2024;" horiz-adv-x="428" d="M111 0v240h206v-240h-206z" />
<glyph unicode="&#x2025;" horiz-adv-x="856" d="M539 0v240h206v-240h-206zM111 0v240h206v-240h-206z" />
<glyph unicode="&#x2026;" horiz-adv-x="1284" d="M109 0v240h206v-240h-206zM537 0v240h206v-240h-206zM965 0v240h206v-240h-206z" />
<glyph unicode="&#x202a;" horiz-adv-x="0" />
<glyph unicode="&#x202f;" horiz-adv-x="401" />
<glyph unicode="&#x2030;" horiz-adv-x="2066" d="M102 975v414q0 106 69 157t169 51q92 0 158.5 -47t66.5 -147v-412q0 -111 -62.5 -167t-170.5 -56q-98 0 -164 51.5t-66 155.5zM250 991q0 -41 20.5 -67.5t63.5 -26.5q41 0 61.5 24.5t20.5 65.5v402q0 39 -23.5 60t-60.5 21q-43 0 -62.5 -27.5t-19.5 -68.5v-383zM362 -25 l566 1606h139l-561 -1606h-144zM874 180v418q0 106 67 156.5t165 50.5q100 0 163.5 -51.5t63.5 -155.5v-422q0 -109 -65.5 -155t-165.5 -46q-98 0 -163 50.5t-65 154.5zM1024 201q0 -43 17.5 -72t64.5 -29q49 0 64.5 31t15.5 74v393q0 37 -22.5 58.5t-59.5 21.5t-58.5 -21.5 t-21.5 -58.5v-397zM1505 180v418q0 106 66.5 156.5t165.5 50.5q100 0 163.5 -51.5t63.5 -155.5v-422q0 -106 -67.5 -152.5t-163.5 -46.5q-98 0 -163 49.5t-65 153.5zM1655 201q0 -43 17.5 -71t64.5 -28q49 0 64.5 30t15.5 73v393q0 37 -22.5 58.5t-59.5 21.5 q-35 0 -57.5 -22.5t-22.5 -57.5v-397z" />
<glyph unicode="&#x2032;" horiz-adv-x="466" d="M141 1581h183l-23 -469h-137z" />
<glyph unicode="&#x2033;" horiz-adv-x="933" d="M608 1581h183l-23 -469h-137zM141 1581h183l-23 -469h-137z" />
<glyph unicode="&#x2034;" horiz-adv-x="1400" d="M1075 1581h183l-23 -469h-137zM608 1581h183l-23 -469h-137zM141 1581h183l-23 -469h-137z" />
<glyph unicode="&#x2035;" horiz-adv-x="1024" d="M348 1614h227l101 -287h-162z" />
<glyph unicode="&#x2036;" horiz-adv-x="2048" d="M1372 1614h227l101 -287h-162zM348 1614h227l101 -287h-162z" />
<glyph unicode="&#x2037;" horiz-adv-x="3072" d="M2396 1614h227l101 -287h-162zM1372 1614h227l101 -287h-162zM348 1614h227l101 -287h-162z" />
<glyph unicode="&#x2039;" horiz-adv-x="522" d="M106 471v238l306 325v-280l-142 -129q-10 -10 -20 -17.5t-23 -13.5q20 -10 41 -31l144 -137v-285z" />
<glyph unicode="&#x203a;" horiz-adv-x="522" d="M119 141v285l143 137q20 20 41 31q-12 6 -22.5 13t-20.5 18l-141 129v280l305 -325v-238z" />
<glyph unicode="&#x203c;" horiz-adv-x="1097" d="M746 0v233h209v-233h-209zM746 903v678h209v-682q0 -55 -4 -94l-7 -94l-20 -375h-154l-16 379q-4 55 -6 94t-2 94zM197 0v233h209v-233h-209zM197 903v678h209v-682q0 -55 -4 -94l-7 -94l-20 -375h-154l-16 379q-4 55 -6 94t-2 94z" />
<glyph unicode="&#x203e;" horiz-adv-x="362" d="M-250 123v146h500v-146h-500z" />
<glyph unicode="&#x2044;" horiz-adv-x="395" d="M-143 0l549 1556h135l-549 -1556h-135z" />
<glyph unicode="&#x2047;" horiz-adv-x="1757" d="M1004 1128v95q0 84 16.5 153.5t54 118.5t100 76.5t155.5 27.5q104 0 167.5 -26.5t97.5 -74.5t44 -115.5t10 -151.5q0 -72 -7 -123t-21.5 -93t-37 -79t-53.5 -82l-78 -113q-35 -49 -50 -96t-15 -108v-191h-207v184q0 47 4 85t15.5 72t29 66.5t43.5 71.5l107 158 q37 55 52 97t15 110q0 35 2 77t-7 77.5t-33.5 60.5t-75.5 25q-41 0 -66 -12.5t-37 -35t-16 -53.5t-4 -65v-136h-205zM1180 0v229h207v-229h-207zM125 1128v95q0 84 16.5 153.5t54 118.5t100 76.5t155.5 27.5q104 0 167.5 -26.5t97.5 -74.5t44 -115.5t10 -151.5 q0 -72 -7 -123t-21.5 -93t-37 -79t-53.5 -82l-78 -113q-35 -49 -50 -96t-15 -108v-191h-207v184q0 47 4 85t15.5 72t29 66.5t43.5 71.5l107 158q37 55 52 97t15 110q0 35 2 77t-7 77.5t-33.5 60.5t-75.5 25q-41 0 -66 -12.5t-37 -35t-16 -53.5t-4 -65v-136h-205zM301 0v229 h207v-229h-207z" />
<glyph unicode="&#x2048;" horiz-adv-x="1427" d="M1076 0v233h209v-233h-209zM1076 903v678h209v-682q0 -55 -4 -94l-7 -94l-20 -375h-154l-16 379q-4 55 -6 94t-2 94zM125 1128v95q0 84 16.5 153.5t54 118.5t100 76.5t155.5 27.5q104 0 167.5 -26.5t97.5 -74.5t44 -115.5t10 -151.5q0 -72 -7 -123t-21.5 -93t-37 -79 t-53.5 -82l-78 -113q-35 -49 -50 -96t-15 -108v-191h-207v184q0 47 4 85t15.5 72t29 66.5t43.5 71.5l107 158q37 55 52 97t15 110q0 35 2 77t-7 77.5t-33.5 60.5t-75.5 25q-41 0 -66 -12.5t-37 -35t-16 -53.5t-4 -65v-136h-205zM301 0v229h207v-229h-207z" />
<glyph unicode="&#x2049;" horiz-adv-x="1427" d="M674 1128v95q0 84 16.5 153.5t54 118.5t100 76.5t155.5 27.5q104 0 167.5 -26.5t97.5 -74.5t44 -115.5t10 -151.5q0 -72 -7 -123t-21.5 -93t-37 -79t-53.5 -82l-78 -113q-35 -49 -50 -96t-15 -108v-191h-207v184q0 47 4 85t15.5 72t29 66.5t43.5 71.5l107 158 q37 55 52 97t15 110q0 35 2 77t-7 77.5t-33.5 60.5t-75.5 25q-41 0 -66 -12.5t-37 -35t-16 -53.5t-4 -65v-136h-205zM850 0v229h207v-229h-207zM197 0v233h209v-233h-209zM197 903v678h209v-682q0 -55 -4 -94l-7 -94l-20 -375h-154l-16 379q-4 55 -6 94t-2 94z" />
<glyph unicode="&#x2057;" horiz-adv-x="1867" d="M1542 1581h183l-23 -469h-137zM1075 1581h183l-23 -469h-137zM608 1581h183l-23 -469h-137zM141 1581h183l-23 -469h-137z" />
<glyph unicode="&#x205f;" horiz-adv-x="503" />
<glyph unicode="&#x2060;" horiz-adv-x="0" />
<glyph unicode="&#x20a8;" horiz-adv-x="2013" d="M1216 322v59h193v-41q0 -39 4 -76t19 -64.5t47 -45t87 -17.5q72 0 110 45t38 117q0 43 -17.5 77t-47.5 61.5t-67 51.5l-79 50l-84 51q-76 47 -128 114.5t-52 178.5q0 76 25.5 131t70.5 92t105.5 54.5t131.5 17.5q324 0 324 -312v-61h-195v39q0 33 -4 64.5t-17 56t-40 39 t-70 14.5q-57 0 -93 -33t-36 -92q0 -37 14.5 -63.5t36 -48t49.5 -39.5l56 -33l90 -56q49 -31 91 -63.5t73 -74.5t49 -94t18 -120q0 -160 -93 -243t-263 -83q-98 0 -164.5 24t-106.5 68t-57.5 108.5t-17.5 146.5zM145 0v1581h435q227 0 327.5 -101.5t100.5 -324.5 q0 -61 -7.5 -118.5t-28 -106.5t-58 -90t-99.5 -68v-6q35 -16 61.5 -34.5t49.5 -49.5q37 -53 43 -118.5t10 -129.5l8 -123q4 -80 17.5 -159.5t48.5 -151.5h-228q-29 51 -38 120.5t-13 147.5l-4 111q-2 63 -9 120.5t-28 100.5q-23 47 -65.5 70.5t-92.5 23.5h-151q-49 0 -74 6 q4 -14 5 -25t1 -28v-647h-211zM350 868q14 4 25.5 5t27.5 1h183q63 0 105 20.5t66.5 56.5t34 85t9.5 107q0 82 -16.5 131t-48 75.5t-76 36t-99.5 9.5h-158q-16 0 -27 1t-26 5q4 -14 5 -25.5t1 -27.5v-426q0 -16 -1 -28t-5 -26z" />
<glyph unicode="&#x20ac;" d="M72 571v152h123v117h-123v151h123v47q0 111 10 209.5t50 172t121 117.5t222 44q119 0 194.5 -32.5t119.5 -91t61.5 -137.5t17.5 -173v-27h-213v29q0 47 -4 93t-21.5 83t-53 60.5t-99.5 23.5q-82 0 -123 -37t-56 -92t-15 -121v-123v-45h405v-151h-405v-117h405v-152h-405 v-192q0 -51 8 -93t28.5 -73t57.5 -48.5t92 -17.5q61 0 98 20.5t56.5 55.5t25.5 80t6 94v29h213v-27q0 -96 -18.5 -174t-62.5 -133t-120.5 -86t-193.5 -31q-154 0 -235.5 45.5t-118.5 123t-42 182t-5 223.5v22h-123z" />
<glyph unicode="&#x2122;" horiz-adv-x="1591" d="M37 1464v117h498v-117h-146q-20 0 -41 6q6 -23 6 -40v-750h-139v750q0 18 6 40q-23 -6 -41 -6h-143zM637 680v901h203l104 -370q51 -183 94 -371l11 2q41 188 91 370l99 369h203v-901h-131v369q0 82 2 161.5t6 161.5l-12 2q-41 -176 -89 -348l-96 -346h-157l-102 346 q-50 172 -91 350l-12 -2q4 -82 6 -163t2 -162v-369h-131z" />
<glyph unicode="&#xe000;" horiz-adv-x="1155" d="M0 1155h1155v-1155h-1155v1155z" />
</font>
</defs>
</svg>
